<svg version="1.1" xmlns="http://www.w3.org/2000/svg" viewBox="0 0 1064 348" width="1064" height="348">
  <!-- svg-source:excalidraw -->
  
  <defs>
    <style class="style-fonts">
      @font-face {
        font-family: "Virgil";
        src: url("https://excalidraw.com/Virgil.woff2");
      }
      @font-face {
        font-family: "Cascadia";
        src: url("https://excalidraw.com/Cascadia.woff2");
      }
    </style>
  </defs>
  <rect x="0" y="0" width="1064" height="348" fill="#ffffff"></rect><g stroke-linecap="round" transform="translate(498 131) rotate(0 102.5 40.5)"><path d="M5.39 4.69 C5.39 4.69, 5.39 4.69, 5.39 4.69 M5.39 4.69 C5.39 4.69, 5.39 4.69, 5.39 4.69 M1.19 15.61 C2.81 12.77, 6.35 9.11, 13 2.03 M1.19 15.61 C5.22 10.45, 9.51 5.76, 13 2.03 M0.93 22.01 C5.63 16.14, 9.47 8.77, 18.64 1.63 M0.93 22.01 C4.77 17.29, 8.14 13.09, 18.64 1.63 M0.67 28.41 C10.09 18.54, 15.73 8.66, 22.98 2.75 M0.67 28.41 C8.43 19.39, 17.99 8.29, 22.98 2.75 M1.06 34.05 C11.97 23.27, 22.94 10.91, 28.62 2.35 M1.06 34.05 C11.46 23.6, 20.21 12.94, 28.62 2.35 M0.8 40.45 C8.69 30.45, 14.41 24.62, 33.61 2.71 M0.8 40.45 C12.99 24.78, 26.94 10.79, 33.61 2.71 M0.54 46.85 C9.4 37.02, 17.03 25.92, 39.25 2.32 M0.54 46.85 C10.43 36.34, 18.64 26.14, 39.25 2.32 M0.94 52.49 C12.39 40.08, 25.98 23.31, 44.24 2.68 M0.94 52.49 C9.78 41.24, 18.49 30.97, 44.24 2.68 M0.67 58.89 C12.94 43.93, 24.81 30.22, 49.88 2.28 M0.67 58.89 C16.25 40.07, 32.75 21.56, 49.88 2.28 M1.07 64.53 C20.23 46.08, 36.05 23.71, 54.87 2.64 M1.07 64.53 C11.62 51.37, 22.45 39.11, 54.87 2.64 M3.43 67.91 C16.68 51.58, 29.2 38.4, 60.51 2.25 M3.43 67.91 C25.53 44.16, 47.08 18.75, 60.51 2.25 M5.14 72.04 C19.53 54.97, 32.81 39.4, 65.5 2.61 M5.14 72.04 C23.11 51.03, 41.6 29.74, 65.5 2.61 M6.19 76.93 C27.13 51.05, 53.05 25.7, 71.14 2.21 M6.19 76.93 C22.86 57.71, 40.84 38.4, 71.14 2.21 M9.86 78.8 C31.78 54.84, 53.82 29.19, 76.13 2.57 M9.86 78.8 C30.19 56.13, 48.79 32.59, 76.13 2.57 M12.88 81.42 C37.75 51.04, 61.41 25.54, 81.77 2.18 M12.88 81.42 C27.35 64.12, 43.58 44.36, 81.77 2.18 M17.87 81.78 C37.67 59.72, 57.43 35.36, 86.76 2.54 M17.87 81.78 C37.74 59.53, 58.61 34.96, 86.76 2.54 M22.2 82.9 C48.88 52.93, 77.32 22.24, 91.74 2.9 M22.2 82.9 C36.67 66.13, 50.75 50.89, 91.74 2.9 M27.84 82.5 C44.33 64.24, 60.01 44.01, 97.39 2.51 M27.84 82.5 C42.84 64.4, 58.88 48.69, 97.39 2.51 M32.83 82.86 C51.44 63.03, 70.63 42.7, 102.37 2.87 M32.83 82.86 C55.01 56.36, 77.95 30.65, 102.37 2.87 M38.47 82.47 C64.51 53.47, 88.52 22.1, 108.02 2.47 M38.47 82.47 C61.91 54.9, 87.68 26.2, 108.02 2.47 M43.46 82.83 C66.72 56.79, 91.99 27.55, 113 2.83 M43.46 82.83 C70.95 52.3, 98.23 21.54, 113 2.83 M49.1 82.44 C65.69 63.75, 83.36 44.16, 118.65 2.44 M49.1 82.44 C65.27 65.16, 79.09 47.79, 118.65 2.44 M54.09 82.8 C82.46 49.94, 108.75 21.85, 123.63 2.8 M54.09 82.8 C81.46 52.45, 109.28 22.28, 123.63 2.8 M59.08 83.16 C73.7 68.64, 90.57 49.83, 129.28 2.4 M59.08 83.16 C76.7 62.48, 95.2 42.58, 129.28 2.4 M64.72 82.76 C79.19 65.55, 92.24 49.86, 134.26 2.76 M64.72 82.76 C78.45 65.99, 93.31 47.84, 134.26 2.76 M69.71 83.12 C95.92 52.74, 124.28 22.05, 139.91 2.37 M69.71 83.12 C95.25 54.72, 121.23 24.36, 139.91 2.37 M75.35 82.73 C91.86 65.61, 110.2 46.64, 144.89 2.73 M75.35 82.73 C98.04 56.75, 121.02 31.51, 144.89 2.73 M80.34 83.09 C106.8 53.29, 127.74 28.2, 150.54 2.33 M80.34 83.09 C103.78 55.42, 129.56 27.92, 150.54 2.33 M85.98 82.69 C113.7 53.86, 138.1 20.9, 155.52 2.69 M85.98 82.69 C106.1 59.66, 126.74 37.29, 155.52 2.69 M90.97 83.05 C117.61 53, 141.71 24.68, 161.17 2.3 M90.97 83.05 C110.89 60.47, 130.2 37.96, 161.17 2.3 M96.61 82.66 C122.34 54.36, 146.13 29.52, 166.15 2.66 M96.61 82.66 C111.89 64.96, 126.46 48.12, 166.15 2.66 M101.6 83.02 C124.72 55.57, 151.71 25.01, 171.8 2.26 M101.6 83.02 C125.42 53.99, 150.45 25, 171.8 2.26 M107.24 82.62 C127.2 59.71, 151.3 33.79, 176.78 2.62 M107.24 82.62 C131.14 53.52, 156.14 25.19, 176.78 2.62 M112.23 82.98 C126.23 64.83, 141.76 46.73, 182.43 2.23 M112.23 82.98 C139.28 52.3, 166.63 19.6, 182.43 2.23 M117.87 82.59 C133.3 62.82, 152.55 43.22, 187.41 2.59 M117.87 82.59 C139.96 57.34, 160.86 32.45, 187.41 2.59 M122.86 82.95 C138.48 62.16, 158.04 40.35, 193.71 1.44 M122.86 82.95 C147.71 53.51, 173.69 23.4, 193.71 1.44 M128.5 82.55 C143.77 62.72, 161.81 45.61, 196.73 4.06 M128.5 82.55 C152.95 54.4, 178.97 26.01, 196.73 4.06 M133.49 82.91 C153.06 60.49, 173.02 33.97, 200.41 5.93 M133.49 82.91 C150.9 62.44, 167.72 44.37, 200.41 5.93 M139.13 82.52 C158.77 59.3, 179.85 34.04, 203.43 8.56 M139.13 82.52 C152.28 66.79, 165.94 48.82, 203.43 8.56 M144.12 82.88 C159.34 65.58, 175.09 45.66, 204.48 13.45 M144.12 82.88 C157.4 66.38, 170.79 49.6, 204.48 13.45 M149.76 82.49 C161.99 66.78, 176.08 49.8, 206.84 16.83 M149.76 82.49 C162.99 67.35, 176.11 51.54, 206.84 16.83 M154.75 82.85 C173.57 61.8, 189.53 42.89, 206.58 23.22 M154.75 82.85 C167.45 67.79, 181.1 52.77, 206.58 23.22 M160.39 82.45 C177.19 63.78, 193.34 43.72, 206.97 28.87 M160.39 82.45 C175.93 62.67, 192.77 44.1, 206.97 28.87 M165.38 82.81 C176.05 73.25, 182.95 60.36, 206.71 35.26 M165.38 82.81 C175.12 72.62, 183.64 62.58, 206.71 35.26 M171.02 82.42 C181.42 73.73, 190.82 62.11, 206.45 41.66 M171.02 82.42 C179.26 73.05, 187.68 62.45, 206.45 41.66 M176.01 82.78 C186.22 71.67, 195.19 60.77, 206.84 47.31 M176.01 82.78 C184.93 72.32, 194.66 62.64, 206.84 47.31 M181 83.14 C190.35 69.96, 199.04 59.08, 206.58 53.7 M181 83.14 C187.97 75.01, 196.08 66.87, 206.58 53.7 M186.64 82.74 C192.38 76.75, 194.65 72, 205.66 60.86 M186.64 82.74 C192.72 75.28, 198.92 68.2, 205.66 60.86 M193.59 80.84 C196.52 79.31, 197.65 75.55, 204.09 68.76 M193.59 80.84 C196.83 77.28, 198.12 75.37, 204.09 68.76" stroke="#ced4da" stroke-width="0.5" fill="none"></path><path d="M20.25 0 M20.25 0 C85.3 0.88, 150.22 3.13, 184.75 0 M20.25 0 C65.86 0.65, 112.84 -1.17, 184.75 0 M184.75 0 C197.16 -0.44, 203.88 7.3, 205 20.25 M184.75 0 C198.82 -0.85, 205.91 8.5, 205 20.25 M205 20.25 C205.16 34.05, 205.3 48.45, 205 60.75 M205 20.25 C204.75 28.89, 204.53 39.44, 205 60.75 M205 60.75 C204.33 72.7, 199.81 81.77, 184.75 81 M205 60.75 C205 73.36, 197.29 79.28, 184.75 81 M184.75 81 C128.35 83.24, 68.5 82.62, 20.25 81 M184.75 81 C148.48 82.29, 111.39 80.69, 20.25 81 M20.25 81 C6.35 81.01, 1.57 73.2, 0 60.75 M20.25 81 C5.88 81.36, -0.53 73.93, 0 60.75 M0 60.75 C-0.95 43.62, -1.59 30.57, 0 20.25 M0 60.75 C0.22 45.82, 0.46 30.22, 0 20.25 M0 20.25 C-1.23 6.57, 6.28 -1.28, 20.25 0 M0 20.25 C-1.5 7.78, 5.06 -1.19, 20.25 0" stroke="#000000" stroke-width="1" fill="none"></path></g><g transform="translate(566.5 159) rotate(0 34 12.5)"><text x="34" y="18" font-family="Virgil, Segoe UI Emoji" font-size="20px" fill="#000000" text-anchor="middle" style="white-space: pre;" direction="ltr">Apache</text></g><g stroke-linecap="round" transform="translate(815.5 147.5) rotate(0 102.5 40.5)"><path d="M5.39 4.69 C5.39 4.69, 5.39 4.69, 5.39 4.69 M5.39 4.69 C5.39 4.69, 5.39 4.69, 5.39 4.69 M1.19 15.61 C3.51 11.19, 6.33 8.56, 13 2.03 M1.19 15.61 C3.77 12, 7.24 8.31, 13 2.03 M0.93 22.01 C4.28 18.75, 8.04 12.36, 18.64 1.63 M0.93 22.01 C8.23 14.83, 13.6 8.57, 18.64 1.63 M0.67 28.41 C5.32 21.31, 12.97 13.82, 22.98 2.75 M0.67 28.41 C5.04 21.43, 9.95 15.65, 22.98 2.75 M1.06 34.05 C9.83 26.92, 17.48 15.96, 28.62 2.35 M1.06 34.05 C7.93 25.94, 16.21 16.77, 28.62 2.35 M0.8 40.45 C9.84 30.44, 22.14 19.45, 33.61 2.71 M0.8 40.45 C12.67 27.47, 23.71 14.74, 33.61 2.71 M0.54 46.85 C11.77 36.63, 19.53 25.16, 39.25 2.32 M0.54 46.85 C13.35 32.52, 25.46 19, 39.25 2.32 M0.94 52.49 C16.21 36.31, 26.4 19.39, 44.24 2.68 M0.94 52.49 C10.2 40.63, 21.13 29.83, 44.24 2.68 M0.67 58.89 C21.33 38.7, 37.67 14.98, 49.88 2.28 M0.67 58.89 C15.12 41.75, 29.89 24.57, 49.88 2.28 M1.07 64.53 C17.55 46.4, 36.21 25.85, 54.87 2.64 M1.07 64.53 C16.56 47.84, 31.52 28.49, 54.87 2.64 M3.43 67.91 C20.59 45.45, 40.98 22.85, 60.51 2.25 M3.43 67.91 C26.35 40.74, 49.73 15.37, 60.51 2.25 M5.14 72.04 C17.32 57.86, 31.85 41.72, 65.5 2.61 M5.14 72.04 C24.84 47.69, 45.71 23.83, 65.5 2.61 M6.19 76.93 C25.74 55.37, 48.85 28.41, 71.14 2.21 M6.19 76.93 C23.87 56.02, 44.06 33.34, 71.14 2.21 M9.86 78.8 C28.53 61.23, 46.35 41.04, 76.13 2.57 M9.86 78.8 C32.25 52.17, 56.5 25.62, 76.13 2.57 M12.88 81.42 C38.14 53.37, 65.09 23.58, 81.77 2.18 M12.88 81.42 C30.69 61.62, 49.67 39.79, 81.77 2.18 M17.87 81.78 C37.81 62.52, 55.16 40.44, 86.76 2.54 M17.87 81.78 C39.36 55.83, 61.08 31.16, 86.76 2.54 M22.2 82.9 C37.66 62.67, 53.96 43.27, 91.74 2.9 M22.2 82.9 C41.24 62.51, 57.82 42.13, 91.74 2.9 M27.84 82.5 C48.71 55.16, 72.13 27.78, 97.39 2.51 M27.84 82.5 C53.41 50.65, 81.35 19.34, 97.39 2.51 M32.83 82.86 C57.65 53.7, 80.65 27.42, 102.37 2.87 M32.83 82.86 C50.17 62.47, 67.22 43.66, 102.37 2.87 M38.47 82.47 C61.96 53.51, 88.78 25.48, 108.02 2.47 M38.47 82.47 C61.32 56.14, 86.52 28.71, 108.02 2.47 M43.46 82.83 C60.66 61.86, 77.97 43.68, 113 2.83 M43.46 82.83 C60.87 62.11, 77.32 43.62, 113 2.83 M49.1 82.44 C69.65 57.85, 88.8 36.21, 118.65 2.44 M49.1 82.44 C69.39 59.92, 88.97 36.68, 118.65 2.44 M54.09 82.8 C73.94 58.15, 96.3 33.69, 123.63 2.8 M54.09 82.8 C74.89 58.73, 95.3 36.53, 123.63 2.8 M59.08 83.16 C81.28 59.03, 105.29 31.27, 129.28 2.4 M59.08 83.16 C73.93 66.17, 88.29 49.67, 129.28 2.4 M64.72 82.76 C81.21 63.28, 95.32 42.94, 134.26 2.76 M64.72 82.76 C86.83 58.14, 106.19 33.77, 134.26 2.76 M69.71 83.12 C88.31 58.27, 109.77 35.24, 139.91 2.37 M69.71 83.12 C97.98 51.82, 124.6 21.56, 139.91 2.37 M75.35 82.73 C87.59 65.44, 101.41 50.49, 144.89 2.73 M75.35 82.73 C101.44 51.71, 126.79 22.67, 144.89 2.73 M80.34 83.09 C95.87 65.09, 108.07 50.34, 150.54 2.33 M80.34 83.09 C105.82 54.94, 130.87 25.7, 150.54 2.33 M85.98 82.69 C107.61 58.54, 124.91 35.29, 155.52 2.69 M85.98 82.69 C107.37 57.32, 130.72 33.45, 155.52 2.69 M90.97 83.05 C106.08 65.48, 119.8 49.56, 161.17 2.3 M90.97 83.05 C118.33 51.97, 146.9 19.84, 161.17 2.3 M96.61 82.66 C111.93 65.33, 126.02 47.22, 166.15 2.66 M96.61 82.66 C116.13 58.24, 135.97 36.09, 166.15 2.66 M101.6 83.02 C130.91 50.88, 156.46 21.45, 171.8 2.26 M101.6 83.02 C117.89 63.89, 133.09 45.07, 171.8 2.26 M107.24 82.62 C123.98 62.32, 137.9 44.05, 176.78 2.62 M107.24 82.62 C134.29 50.43, 160.38 19.63, 176.78 2.62 M112.23 82.98 C137.55 55.56, 163.69 23.94, 182.43 2.23 M112.23 82.98 C135.06 59.38, 156.38 34.01, 182.43 2.23 M117.87 82.59 C133.72 64.04, 149.98 43.72, 187.41 2.59 M117.87 82.59 C135.99 61.25, 153.34 40.88, 187.41 2.59 M122.86 82.95 C140.51 62.58, 158.74 41.21, 193.71 1.44 M122.86 82.95 C146.01 57.6, 168.65 32.44, 193.71 1.44 M128.5 82.55 C146.87 58.02, 167.5 35.71, 196.73 4.06 M128.5 82.55 C146.55 62.92, 163.41 42.3, 196.73 4.06 M133.49 82.91 C158.51 54.21, 186.17 24.94, 200.41 5.93 M133.49 82.91 C153.23 60.31, 172.59 38.94, 200.41 5.93 M139.13 82.52 C154.7 68, 169.19 47.47, 203.43 8.56 M139.13 82.52 C160.87 58.3, 182.36 33.79, 203.43 8.56 M144.12 82.88 C166.97 57.24, 189.59 31.09, 204.48 13.45 M144.12 82.88 C164 61.2, 180.95 40.04, 204.48 13.45 M149.76 82.49 C162.62 63.34, 181.46 47.06, 206.84 16.83 M149.76 82.49 C168.01 61.54, 184.04 43.51, 206.84 16.83 M154.75 82.85 C172.7 61.83, 189.04 44.85, 206.58 23.22 M154.75 82.85 C173.81 61.45, 193.61 37.67, 206.58 23.22 M160.39 82.45 C171.18 68.9, 181.7 57.77, 206.97 28.87 M160.39 82.45 C176.86 62.39, 194.83 42.96, 206.97 28.87 M165.38 82.81 C174.71 72.56, 182.76 61.76, 206.71 35.26 M165.38 82.81 C178.86 66.74, 193.87 50.72, 206.71 35.26 M171.02 82.42 C180.28 68.08, 192.43 56.81, 206.45 41.66 M171.02 82.42 C181.26 71.71, 190.54 60.13, 206.45 41.66 M176.01 82.78 C181.55 75.11, 190.35 68.73, 206.84 47.31 M176.01 82.78 C182.77 75.31, 188.27 69.13, 206.84 47.31 M181 83.14 C189.19 72.86, 197.94 66.02, 206.58 53.7 M181 83.14 C188.49 74.43, 195.99 65.48, 206.58 53.7 M186.64 82.74 C194.64 76.85, 201.13 67.61, 205.66 60.86 M186.64 82.74 C194.62 74.5, 201.63 65.85, 205.66 60.86 M193.59 80.84 C198.27 77.47, 200.98 71.36, 204.09 68.76 M193.59 80.84 C196.32 78.73, 198.73 75.83, 204.09 68.76" stroke="#ced4da" stroke-width="0.5" fill="none"></path><path d="M20.25 0 M20.25 0 C57.63 1.08, 97.7 1.03, 184.75 0 M20.25 0 C57.87 1.73, 94.54 0.45, 184.75 0 M184.75 0 C198.36 -0.42, 204.3 4.87, 205 20.25 M184.75 0 C199.98 -1.37, 206.46 4.61, 205 20.25 M205 20.25 C206.35 32.25, 205.78 48.21, 205 60.75 M205 20.25 C204.72 34.31, 203.92 47.45, 205 60.75 M205 60.75 C203.79 74.78, 196.28 79.1, 184.75 81 M205 60.75 C206.85 73.63, 200.47 79.15, 184.75 81 M184.75 81 C143.28 81.79, 104.39 78.41, 20.25 81 M184.75 81 C145.89 80.47, 108.04 80.58, 20.25 81 M20.25 81 C7.66 82.68, 0.47 73.46, 0 60.75 M20.25 81 C5.09 82.18, 1.73 73.23, 0 60.75 M0 60.75 C1.39 44.03, 1.83 29.89, 0 20.25 M0 60.75 C0.65 51.98, 0.01 44.08, 0 20.25 M0 20.25 C-0.26 7.22, 5.66 -0.24, 20.25 0 M0 20.25 C-1.87 5.57, 7.26 -0.84, 20.25 0" stroke="#000000" stroke-width="1" fill="none"></path></g><g transform="translate(883.5 163) rotate(0 34.5 25)"><text x="34.5" y="18" font-family="Virgil, Segoe UI Emoji" font-size="20px" fill="#000000" text-anchor="middle" style="white-space: pre;" direction="ltr">Uvicorn</text><text x="34.5" y="43" font-family="Virgil, Segoe UI Emoji" font-size="20px" fill="#000000" text-anchor="middle" style="white-space: pre;" direction="ltr">(Flask)</text></g><g stroke-linecap="round"><g transform="translate(720 174.36232662158642) rotate(0 41.51971041866568 0.8205537731199968)"><path d="M0.37 -0.05 C14.5 0.35, 70.22 1.03, 83.94 1.59 M-0.9 -1.12 C13.23 -0.51, 69.71 2.32, 83.48 2.76" stroke="#000000" stroke-width="1" fill="none"></path></g><g transform="translate(720 174.36232662158642) rotate(0 41.51971041866568 0.8205537731199968)"><path d="M54.8 13.38 C60.37 9.08, 69.84 8.63, 82.94 1.51 M54.74 11.39 C63.29 8.67, 72.13 5.67, 83 2.39" stroke="#000000" stroke-width="1" fill="none"></path></g><g transform="translate(720 174.36232662158642) rotate(0 41.51971041866568 0.8205537731199968)"><path d="M55.67 -7.12 C60.9 -6.7, 70.17 -2.42, 82.94 1.51 M55.61 -9.12 C63.97 -5.68, 72.55 -2.52, 83 2.39" stroke="#000000" stroke-width="1" fill="none"></path></g></g><mask></mask><g stroke-linecap="round" transform="translate(10 130) rotate(0 126.5 49)"><path d="M5.87 6.42 C5.87 6.42, 5.87 6.42, 5.87 6.42 M5.87 6.42 C5.87 6.42, 5.87 6.42, 5.87 6.42 M0.36 18.86 C4.04 14.7, 7.36 9.76, 14.79 2.26 M0.36 18.86 C5.16 14.1, 9.11 8.92, 14.79 2.26 M0.09 25.26 C5.49 17.63, 11.44 11.79, 21.09 1.11 M0.09 25.26 C7.06 18.21, 12.96 9.62, 21.09 1.11 M0.49 30.9 C4.23 26.02, 12.44 19, 26.07 1.47 M0.49 30.9 C6.61 23.66, 15.13 15.65, 26.07 1.47 M0.23 37.3 C10.26 28.28, 17.79 17.65, 31.72 1.07 M0.23 37.3 C12.56 23.82, 23.64 10.6, 31.72 1.07 M0.62 42.94 C13.34 30.16, 25.43 16.01, 36.7 1.43 M0.62 42.94 C8.9 31.37, 19.1 21.16, 36.7 1.43 M0.36 49.34 C11.31 36.66, 21.82 25.52, 42.35 1.04 M0.36 49.34 C16.49 32.15, 30.84 15.78, 42.35 1.04 M0.1 55.74 C13.09 41.15, 27.77 22.42, 47.34 1.4 M0.1 55.74 C16.82 36.47, 35.15 15.52, 47.34 1.4 M0.49 61.38 C15.42 41.13, 32.89 24.19, 52.32 1.76 M0.49 61.38 C12.05 48.22, 22.61 35.12, 52.32 1.76 M0.23 67.78 C13.69 53.22, 24.91 38.66, 57.97 1.36 M0.23 67.78 C14.58 49.74, 30.73 31.81, 57.97 1.36 M0.63 73.42 C14.33 58.57, 30.82 42.1, 62.95 1.72 M0.63 73.42 C21.19 50.05, 41.85 25.96, 62.95 1.72 M0.37 79.82 C17.52 61.08, 31.31 43.93, 68.6 1.33 M0.37 79.82 C16.84 60.37, 33.73 41.15, 68.6 1.33 M2.07 83.95 C20.78 61.12, 39.11 40.16, 73.58 1.69 M2.07 83.95 C25.01 57.93, 49.24 30.9, 73.58 1.69 M3.78 88.09 C28.47 60.47, 53.03 33.1, 79.23 1.29 M3.78 88.09 C28.15 59.65, 52.79 31.31, 79.23 1.29 M6.14 91.46 C31.48 61.85, 57.58 34.6, 84.21 1.65 M6.14 91.46 C25.73 67.75, 45.32 46.73, 84.21 1.65 M9.16 94.09 C37.78 61.57, 65.41 32.14, 89.86 1.26 M9.16 94.09 C39.3 59.76, 69.23 24.36, 89.86 1.26 M12.18 96.71 C34.89 68.43, 61.06 42.17, 94.84 1.62 M12.18 96.71 C29.57 74.44, 49.15 51.23, 94.84 1.62 M15.85 98.58 C46.07 62.84, 76.22 29.21, 100.49 1.22 M15.85 98.58 C34.67 77.21, 52.16 55.71, 100.49 1.22 M20.84 98.94 C42.33 75.74, 64.1 51.32, 105.47 1.58 M20.84 98.94 C53.54 62.53, 85.85 24.35, 105.47 1.58 M25.83 99.3 C47.38 75.76, 64.08 54.73, 111.12 1.19 M25.83 99.3 C49.15 71.75, 72.97 44.27, 111.12 1.19 M31.47 98.91 C49.58 77.93, 68.99 59, 116.1 1.55 M31.47 98.91 C56.39 69.71, 81.18 40.94, 116.1 1.55 M36.46 99.27 C64.28 67.11, 94.23 33.81, 121.75 1.16 M36.46 99.27 C65.8 64.63, 94.26 31.41, 121.75 1.16 M42.1 98.87 C64.76 74.63, 88.6 48.95, 126.73 1.52 M42.1 98.87 C74.76 61.57, 106.21 24.21, 126.73 1.52 M47.09 99.23 C64.14 81.75, 81.67 59.25, 132.38 1.12 M47.09 99.23 C68.39 75.47, 92 49.92, 132.38 1.12 M52.08 99.59 C84.94 62.79, 117.98 25.83, 137.36 1.48 M52.08 99.59 C76.76 69.29, 103.56 39.96, 137.36 1.48 M57.72 99.2 C80.2 73.97, 101.58 47.62, 143.01 1.09 M57.72 99.2 C87.78 64.08, 119.55 27.54, 143.01 1.09 M62.71 99.56 C81.77 78.44, 102.1 54.86, 147.99 1.45 M62.71 99.56 C92.24 66.46, 121.37 31.22, 147.99 1.45 M68.35 99.16 C96.2 64.84, 126.27 27.53, 153.64 1.05 M68.35 99.16 C92.26 70.4, 115.35 44.28, 153.64 1.05 M73.34 99.52 C102.87 63.66, 133.24 31.82, 158.62 1.41 M73.34 99.52 C94.86 74.05, 119.34 47.11, 158.62 1.41 M78.98 99.13 C108.84 64.14, 139.13 29.12, 163.61 1.77 M78.98 99.13 C107.57 65.14, 136.57 32.23, 163.61 1.77 M83.97 99.49 C116.3 60.55, 148.77 24.31, 169.25 1.38 M83.97 99.49 C102.28 79.17, 118.57 58.5, 169.25 1.38 M89.61 99.1 C122.35 64, 150.6 26.85, 174.24 1.74 M89.61 99.1 C116.73 67.35, 143.02 35.51, 174.24 1.74 M94.6 99.46 C116.32 75.08, 135.86 51.83, 179.88 1.34 M94.6 99.46 C113.25 77.97, 130.31 57.7, 179.88 1.34 M100.24 99.06 C130.39 64.18, 161.16 31.76, 184.87 1.7 M100.24 99.06 C131.42 64.69, 161.83 29.91, 184.87 1.7 M105.23 99.42 C132.74 66.14, 161.43 33.04, 190.51 1.31 M105.23 99.42 C130.08 68.8, 156.92 37.77, 190.51 1.31 M110.87 99.03 C136.55 72.18, 159.24 40.77, 195.5 1.67 M110.87 99.03 C144.5 60.65, 176.42 22.07, 195.5 1.67 M115.86 99.39 C144.08 63.21, 175.5 31.35, 201.14 1.27 M115.86 99.39 C133.06 78.07, 150.74 57.84, 201.14 1.27 M121.5 98.99 C137.63 78.17, 156.81 58.07, 206.13 1.63 M121.5 98.99 C148.1 66.77, 176.79 34.04, 206.13 1.63 M126.49 99.35 C147.37 73.43, 169.69 49.65, 211.77 1.24 M126.49 99.35 C145.22 78.09, 163.56 56.67, 211.77 1.24 M132.13 98.96 C162.92 64.25, 189.01 34.67, 216.76 1.6 M132.13 98.96 C158.97 68.03, 184.31 39.58, 216.76 1.6 M137.12 99.32 C163.69 67.27, 191.34 34.24, 222.4 1.21 M137.12 99.32 C165.55 66.95, 195.16 32.78, 222.4 1.21 M142.76 98.92 C163.63 76.27, 179.77 55.58, 228.7 0.06 M142.76 98.92 C160.79 77.52, 177.95 59.13, 228.7 0.06 M147.75 99.28 C172.47 69.08, 197.02 41.61, 233.03 1.17 M147.75 99.28 C177.62 67.14, 206.35 33.29, 233.03 1.17 M153.39 98.89 C182.1 66.19, 209.46 34.17, 238.02 1.53 M153.39 98.89 C181.61 66.01, 209.66 34.81, 238.02 1.53 M158.38 99.25 C176.68 76.19, 194.05 53.79, 241.7 3.4 M158.38 99.25 C183.47 70.72, 209.03 42.72, 241.7 3.4 M164.02 98.85 C183.8 75.15, 207.84 46.3, 244.71 6.02 M164.02 98.85 C190.48 66.54, 219.18 34.58, 244.71 6.02 M169.01 99.21 C185.25 78.07, 202.33 61.81, 248.39 7.89 M169.01 99.21 C191.43 74.09, 213.59 47.72, 248.39 7.89 M173.99 99.57 C193.28 79.17, 209.76 61.02, 250.75 11.27 M173.99 99.57 C198.98 69.11, 224.15 40.14, 250.75 11.27 M179.64 99.18 C197.96 77.65, 221.01 54.72, 252.46 15.41 M179.64 99.18 C197.1 78.88, 214.92 58.35, 252.46 15.41 M184.62 99.54 C202.86 79.25, 220.4 59.69, 254.17 19.54 M184.62 99.54 C207.58 73.63, 232.04 45.3, 254.17 19.54 M190.27 99.15 C208.8 78.62, 226.24 57.4, 253.9 25.94 M190.27 99.15 C210.18 75.52, 230.26 53.16, 253.9 25.94 M195.25 99.51 C217.54 73.81, 238.14 48.91, 254.3 31.58 M195.25 99.51 C208.44 83.88, 221.11 68.03, 254.3 31.58 M200.9 99.11 C211.81 85.97, 225.58 70.8, 254.04 37.98 M200.9 99.11 C217.22 80.18, 234.32 59.09, 254.04 37.98 M205.88 99.47 C224.59 80.51, 241.43 59.34, 253.78 44.38 M205.88 99.47 C216.24 87.95, 225.44 75.94, 253.78 44.38 M211.53 99.08 C218.17 89.45, 228.42 79.67, 254.17 50.02 M211.53 99.08 C223.72 85.48, 236.33 71.73, 254.17 50.02 M216.51 99.44 C228.87 84.38, 239.15 72.25, 253.91 56.42 M216.51 99.44 C228.26 84.34, 242.43 70.67, 253.91 56.42 M222.16 99.04 C231.4 84.63, 241.92 72.83, 254.3 62.06 M222.16 99.04 C233.09 87.75, 241.71 75.79, 254.3 62.06 M227.14 99.4 C232.03 93.92, 239.08 83.64, 254.04 68.46 M227.14 99.4 C237.96 88.16, 248.68 74.84, 254.04 68.46 M231.47 100.52 C236.62 92.99, 242.56 88.14, 254.44 74.1 M231.47 100.52 C238.14 91.97, 245.16 84.08, 254.44 74.1 M237.77 99.37 C241.17 94.4, 248.09 88.23, 252.86 82.01 M237.77 99.37 C240.74 95.32, 244.64 92.61, 252.86 82.01" stroke="#ced4da" stroke-width="0.5" fill="none"></path><path d="M24.5 0 M24.5 0 C77.5 -0.44, 129.44 0.41, 228.5 0 M24.5 0 C73.32 -0.49, 121.56 -1.79, 228.5 0 M228.5 0 C244.07 0.9, 253.99 8.97, 253 24.5 M228.5 0 C243.19 -1.67, 255.04 9.41, 253 24.5 M253 24.5 C250.66 38.21, 253.99 54.69, 253 73.5 M253 24.5 C252.97 35.65, 252.21 44.94, 253 73.5 M253 73.5 C252.53 90.73, 244.1 97.02, 228.5 98 M253 73.5 C254.52 91.4, 244.87 98.56, 228.5 98 M228.5 98 C173.07 100.13, 118.13 97.71, 24.5 98 M228.5 98 C184.92 96.32, 143.25 96.14, 24.5 98 M24.5 98 C8.29 98.47, 0.75 90.91, 0 73.5 M24.5 98 C6.58 98.66, -1.51 89.89, 0 73.5 M0 73.5 C-0.7 61.46, -1.8 44.24, 0 24.5 M0 73.5 C0.25 63.61, 0.18 51.69, 0 24.5 M0 24.5 C1.25 6.93, 10.07 0.79, 24.5 0 M0 24.5 C-0.19 6.98, 6.67 -0.16, 24.5 0" stroke="#000000" stroke-width="1" fill="none"></path></g><g transform="translate(92 166.5) rotate(0 44.5 12.5)"><text x="44.5" y="18" font-family="Virgil, Segoe UI Emoji" font-size="20px" fill="#000000" text-anchor="middle" style="white-space: pre;" direction="ltr">Nosotros</text></g><g stroke-linecap="round"><g transform="translate(277 169.90505596652054) rotate(0 104.85622520574373 0.43307830889315824)"><path d="M1.06 -0.73 C36.18 -0.64, 174.9 -0.68, 209.55 -0.62 M0.16 1.5 C35.28 1.9, 174.22 1, 208.89 0.93" stroke="#000000" stroke-width="1" fill="none"></path></g><g transform="translate(277 169.90505596652054) rotate(0 104.85622520574373 0.43307830889315824)"><path d="M179.52 12.23 C186.56 8.92, 192.65 7.33, 207.95 2.62 M181.28 10.76 C188.36 8.7, 197.24 4.86, 209.11 1.91" stroke="#000000" stroke-width="1" fill="none"></path></g><g transform="translate(277 169.90505596652054) rotate(0 104.85622520574373 0.43307830889315824)"><path d="M179.44 -8.29 C186.28 -7.46, 192.4 -4.91, 207.95 2.62 M181.2 -9.76 C188.21 -5.99, 197.12 -4, 209.11 1.91" stroke="#000000" stroke-width="1" fill="none"></path></g></g><mask></mask><g stroke-linecap="round"><g transform="translate(802 198.80481829934155) rotate(0 -42.145249728485965 -2.0098375685302585)"><path d="M-0.49 -0.57 C-14.64 -0.96, -69.76 -2.78, -83.8 -3.45" stroke="#000000" stroke-width="1.5" fill="none" stroke-dasharray="8 9"></path></g><g transform="translate(802 198.80481829934155) rotate(0 -42.145249728485965 -2.0098375685302585)"><path d="M-56.18 -12.26 C-64.71 -10.31, -77.8 -6.03, -82.9 -4.19" stroke="#000000" stroke-width="1.5" fill="none"></path></g><g transform="translate(802 198.80481829934155) rotate(0 -42.145249728485965 -2.0098375685302585)"><path d="M-56.98 8.24 C-65.01 2.17, -77.79 -1.57, -82.9 -4.19" stroke="#000000" stroke-width="1.5" fill="none"></path></g></g><mask></mask><g stroke-linecap="round"><g transform="translate(485 193) rotate(0 -103.35912526063623 0.46454382948576267)"><path d="M1.13 1.19 C-33.6 0.95, -173.13 -0.06, -207.84 -0.26" stroke="#000000" stroke-width="1.5" fill="none" stroke-dasharray="8 9"></path></g><g transform="translate(485 193) rotate(0 -103.35912526063623 0.46454382948576267)"><path d="M-177.61 -11.74 C-187.96 -6.88, -197.26 -3.07, -207.31 0.84" stroke="#000000" stroke-width="1.5" fill="none"></path></g><g transform="translate(485 193) rotate(0 -103.35912526063623 0.46454382948576267)"><path d="M-177.74 8.78 C-188.25 6.59, -197.5 3.34, -207.31 0.84" stroke="#000000" stroke-width="1.5" fill="none"></path></g></g><mask></mask><g stroke-linecap="round" transform="translate(439 10) rotate(0 307.5 164)"><path d="M32 0 M32 0 C174.58 -1.43, 318.46 -1.43, 583 0 M583 0 C605.9 0, 614.1 9.92, 615 32 M615 32 C616.85 111.61, 616.48 187.94, 615 296 M615 296 C613.25 318.44, 605.45 326.24, 583 328 M583 328 C387.75 328.88, 191.68 329.6, 32 328 M32 328 C9.39 326.57, 0.15 317.6, 0 296 M0 296 C-3.35 237.81, -2.44 176.93, 0 32 M0 32 C0.94 9.43, 11.15 -0.1, 32 0" stroke="#495057" stroke-width="4.5" fill="none" stroke-dasharray="8 12"></path></g></svg>