<svg version="1.1" xmlns="http://www.w3.org/2000/svg" viewBox="0 0 1064 460.5" width="1064" height="460.5">
  <!-- svg-source:excalidraw -->
  
  <defs>
    <style class="style-fonts">
      @font-face {
        font-family: "Virgil";
        src: url("https://excalidraw.com/Virgil.woff2");
      }
      @font-face {
        font-family: "Cascadia";
        src: url("https://excalidraw.com/Cascadia.woff2");
      }
    </style>
  </defs>
  <rect x="0" y="0" width="1064" height="460.5" fill="#ffffff"></rect><g stroke-linecap="round" transform="translate(548 181) rotate(0 102.5 55)"><path d="M3.59 11.07 C3.59 11.07, 3.59 11.07, 3.59 11.07 M3.59 11.07 C3.59 11.07, 3.59 11.07, 3.59 11.07 M0.7 20.48 C3.11 16.63, 7.66 11.85, 16.44 2.37 M0.7 20.48 C6.17 13.63, 11.9 7.3, 16.44 2.37 M3.06 23.86 C8.16 17.54, 12.37 9.74, 22.09 1.98 M3.06 23.86 C7.2 18.79, 10.86 14.26, 22.09 1.98 M3.46 29.51 C13.8 18.55, 20.38 7.59, 28.39 0.83 M3.46 29.51 C12.2 19.36, 22.74 7.14, 28.39 0.83 M3.2 35.9 C15.44 23.65, 27.71 9.79, 34.03 0.43 M3.2 35.9 C14.72 24.17, 24.58 12.25, 34.03 0.43 M3.59 41.55 C12.06 30.88, 18.34 24.41, 39.02 0.79 M3.59 41.55 C16.82 24.66, 31.82 9.46, 39.02 0.79 M3.33 47.94 C12.63 37.62, 20.69 26.03, 44 1.15 M3.33 47.94 C13.69 36.91, 22.38 26.16, 44 1.15 M3.07 54.34 C15.41 40.89, 29.89 23.09, 49.65 0.76 M3.07 54.34 C12.6 42.29, 22 31.23, 49.65 0.76 M3.46 59.98 C16.22 44.43, 28.6 30.13, 54.63 1.12 M3.46 59.98 C19.7 40.41, 36.85 21.16, 54.63 1.12 M3.2 66.38 C23.45 46.71, 40.34 23.11, 60.28 0.72 M3.2 66.38 C14.43 52.43, 25.93 39.42, 60.28 0.72 M3.59 72.03 C17.87 54.43, 31.48 40.01, 65.26 1.08 M3.59 72.03 C27.41 46.3, 50.72 18.86, 65.26 1.08 M3.33 78.42 C19.4 59.46, 34.28 42.06, 70.91 0.69 M3.33 78.42 C23.45 54.81, 44.17 30.96, 70.91 0.69 M3.07 84.82 C26.77 55.77, 55.39 27.32, 75.89 1.05 M3.07 84.82 C21.81 63.24, 41.88 41.52, 75.89 1.05 M2.81 91.22 C29.05 62.52, 55.28 32.06, 81.54 0.65 M2.81 91.22 C26.84 64.31, 49.22 36.42, 81.54 0.65 M4.52 95.35 C34.18 59.51, 62.66 28.47, 86.52 1.01 M4.52 95.35 C21.82 74.58, 41.02 51.4, 86.52 1.01 M5.57 100.24 C30.58 72.36, 55.44 42.14, 92.17 0.62 M5.57 100.24 C30.57 72.02, 56.59 41.52, 92.17 0.62 M7.93 103.62 C42.39 64.91, 78.39 25.52, 97.15 0.98 M7.93 103.62 C26.33 82.25, 44.4 62.4, 97.15 0.98 M10.95 106.24 C32.9 81.86, 53.81 55.61, 102.8 0.58 M10.95 106.24 C30.89 82.6, 51.72 61.39, 102.8 0.58 M15.28 107.36 C39.82 80.5, 64.96 53.33, 107.78 0.94 M15.28 107.36 C44.72 72.26, 74.98 38.13, 107.78 0.94 M18.96 109.23 C54.04 69.53, 87.36 27.46, 113.43 0.55 M18.96 109.23 C51.12 71.75, 85.65 32.98, 113.43 0.55 M22.63 111.1 C54.82 74.9, 89.12 35.27, 118.41 0.91 M22.63 111.1 C60.4 68.93, 97.69 26.65, 118.41 0.91 M28.27 110.7 C51.01 84.84, 74.97 58.02, 124.06 0.52 M28.27 110.7 C50.19 86.69, 69.65 62.84, 124.06 0.52 M33.92 110.31 C72.18 66.08, 108.25 26.72, 129.04 0.88 M33.92 110.31 C71.36 68.77, 109.05 27.24, 129.04 0.88 M38.9 110.67 C59.09 90.19, 81.26 65.3, 134.69 0.48 M38.9 110.67 C63.15 82.49, 88.21 55.04, 134.69 0.48 M43.89 111.03 C64.07 87.49, 82.53 65.57, 139.68 0.84 M43.89 111.03 C63.14 87.58, 83.58 63.01, 139.68 0.84 M49.53 110.63 C85.94 69.01, 124.28 26.84, 145.32 0.45 M49.53 110.63 C84.42 71.61, 119.65 30.62, 145.32 0.45 M54.52 110.99 C77.26 86.73, 101.78 60.66, 150.31 0.81 M54.52 110.99 C85.55 75.31, 117.13 40.18, 150.31 0.81 M60.16 110.6 C95.39 70.81, 124.83 35.94, 155.29 1.17 M60.16 110.6 C92.18 73.1, 126.71 35.53, 155.29 1.17 M65.15 110.96 C102.61 70.88, 136.98 26.45, 160.94 0.77 M65.15 110.96 C92.89 79.49, 120.96 48.57, 160.94 0.77 M70.79 110.57 C106.3 70.47, 139.18 32.05, 165.92 1.13 M70.79 110.57 C97.89 79.91, 124.27 49.27, 165.92 1.13 M75.78 110.93 C110.69 72.33, 143.38 37.26, 171.57 0.74 M75.78 110.93 C96.86 86.78, 117.15 63.36, 171.57 0.74 M81.42 110.53 C113.61 72.46, 149.68 31.46, 177.21 0.34 M81.42 110.53 C114.27 71.02, 148.34 31.63, 177.21 0.34 M86.41 110.89 C114.53 78.76, 146.51 43.78, 182.2 0.7 M86.41 110.89 C119.42 71.05, 153.75 31.97, 182.2 0.7 M92.05 110.5 C111.27 86.51, 131.93 62.51, 185.87 2.57 M92.05 110.5 C128.17 69.19, 164.71 25.92, 185.87 2.57 M97.04 110.86 C118.25 84.33, 143.18 58.19, 190.2 3.69 M97.04 110.86 C126.59 77.16, 154.76 43.92, 190.2 3.69 M102.68 110.46 C123.59 83.4, 148.57 55.35, 195.19 4.05 M102.68 110.46 C135.28 72.01, 168.99 33.01, 195.19 4.05 M107.67 110.82 C128.07 85.29, 151.02 62.54, 197.55 7.43 M107.67 110.82 C139.9 73.61, 173.9 36.05, 197.55 7.43 M113.31 110.43 C138.8 80.78, 164.89 47.21, 200.57 10.05 M113.31 110.43 C135.77 84.03, 157.84 59.92, 200.57 10.05 M118.3 110.79 C144.56 79.81, 172.21 47, 203.59 12.68 M118.3 110.79 C135.87 89.66, 154.16 66.36, 203.59 12.68 M123.94 110.39 C144.58 87.02, 165.57 61.08, 204.64 17.56 M123.94 110.39 C141.87 88.38, 159.93 66.21, 204.64 17.56 M128.93 110.75 C146.01 89.56, 164.89 67.07, 205.69 22.45 M128.93 110.75 C146.74 90.49, 164.44 69.41, 205.69 22.45 M134.57 110.36 C160.03 81.56, 182.77 54.84, 206.08 28.1 M134.57 110.36 C152.12 89.53, 170.62 68.93, 206.08 28.1 M139.56 110.72 C163.48 84.23, 186.55 56.2, 205.82 34.49 M139.56 110.72 C162.07 82.97, 185.94 56.3, 205.82 34.49 M145.2 110.32 C160.31 95.47, 171.7 77.41, 206.22 40.14 M145.2 110.32 C159.4 95.43, 172.18 80.49, 206.22 40.14 M150.19 110.68 C165.95 95.98, 180.65 78.26, 205.96 46.53 M150.19 110.68 C163.43 95.7, 176.63 79.59, 205.96 46.53 M155.18 111.04 C171.75 92.43, 187.08 74.2, 206.35 52.18 M155.18 111.04 C170.03 93.87, 185.57 77.5, 206.35 52.18 M160.82 110.65 C177.8 88.68, 193.98 69.18, 206.09 58.57 M160.82 110.65 C173.67 96.03, 187.53 81.26, 206.09 58.57 M165.81 111.01 C176.86 98.81, 184.37 88.04, 206.48 64.22 M165.81 111.01 C179.29 95.24, 192.74 79.81, 206.48 64.22 M171.45 110.62 C179.82 103.5, 185.84 93.51, 206.22 70.62 M171.45 110.62 C180.84 100.26, 187.65 91.9, 206.22 70.62 M176.44 110.98 C187.86 97.37, 199.14 86.12, 205.96 77.01 M176.44 110.98 C183.76 102.31, 192.72 90.92, 205.96 77.01 M180.11 112.84 C187 106.26, 192 99.33, 205.7 83.41 M180.11 112.84 C189.17 101.97, 198.5 90.98, 205.7 83.41 M186.41 111.7 C192.3 107.8, 193.1 102.94, 205.44 89.81 M186.41 111.7 C194.47 103.93, 200.91 94.87, 205.44 89.81" stroke="#ced4da" stroke-width="0.5" fill="none"></path><path d="M27.5 0 M27.5 0 C68.1 0.77, 106.59 0.17, 177.5 0 M27.5 0 C70.03 1.6, 112.52 1.82, 177.5 0 M177.5 0 C194.11 -1.95, 204.6 9.17, 205 27.5 M177.5 0 C197.64 -1.21, 204.13 9.53, 205 27.5 M205 27.5 C206.45 42.29, 204.28 56.33, 205 82.5 M205 27.5 C205.09 40.83, 205.39 53.79, 205 82.5 M205 82.5 C205.82 100.78, 194.6 109.82, 177.5 110 M205 82.5 C204.46 99.36, 194.33 111.03, 177.5 110 M177.5 110 C141.98 108.08, 109.92 106.82, 27.5 110 M177.5 110 C120.3 109.05, 62.58 109.56, 27.5 110 M27.5 110 C7.29 110.2, -1.87 100.58, 0 82.5 M27.5 110 C11.14 111.79, 2.23 99.37, 0 82.5 M0 82.5 C0.71 65.81, -1.01 52.82, 0 27.5 M0 82.5 C-0.15 69.7, 1.13 57.85, 0 27.5 M0 27.5 C-0.54 8.82, 10.25 1.11, 27.5 0 M0 27.5 C2.25 11.38, 8.65 0.16, 27.5 0" stroke="#000000" stroke-width="1" fill="none"></path></g><g transform="translate(591 186) rotate(0 59.5 37.5)"><text x="59.5" y="18" font-family="Virgil, Segoe UI Emoji" font-size="20px" fill="#000000" text-anchor="middle" style="white-space: pre;" direction="ltr">Host</text><text x="59.5" y="43" font-family="Virgil, Segoe UI Emoji" font-size="20px" fill="#000000" text-anchor="middle" style="white-space: pre;" direction="ltr">(Apache)</text><text x="59.5" y="68" font-family="Virgil, Segoe UI Emoji" font-size="20px" fill="#000000" text-anchor="middle" style="white-space: pre;" direction="ltr">(Postgresql)</text></g><g stroke-linecap="round" transform="translate(797.5 53.5) rotate(0 102.5 30)"><path d="M3.99 3.47 C3.99 3.47, 3.99 3.47, 3.99 3.47 M3.99 3.47 C3.99 3.47, 3.99 3.47, 3.99 3.47 M1.11 12.89 C2.91 9.45, 5.1 7.4, 10.29 2.32 M1.11 12.89 C3.11 10.08, 5.81 7.21, 10.29 2.32 M1.5 18.53 C4.29 15.95, 7.46 10.23, 16.59 1.17 M1.5 18.53 C7.87 12.41, 12.32 7.21, 16.59 1.17 M1.24 24.93 C5.34 18.46, 12.44 11.6, 21.58 1.53 M1.24 24.93 C5.17 18.48, 9.62 13.23, 21.58 1.53 M1.63 30.57 C9.86 24.05, 16.99 13.69, 27.22 1.14 M1.63 30.57 C7.94 23.07, 15.68 14.52, 27.22 1.14 M1.37 36.97 C9.82 27.63, 21.53 17.3, 32.21 1.5 M1.37 36.97 C12.56 24.74, 22.93 12.78, 32.21 1.5 M1.11 43.37 C11.86 33.7, 19.15 22.78, 37.85 1.1 M1.11 43.37 C13.28 29.77, 24.75 16.98, 37.85 1.1 M1.51 49.01 C16.17 33.54, 25.73 17.34, 42.84 1.46 M1.51 49.01 C10.32 37.66, 20.79 27.38, 42.84 1.46 M3.21 53.14 C22.1 34.94, 36.71 13.22, 47.83 1.82 M3.21 53.14 C16.29 37.57, 29.68 21.98, 47.83 1.82 M4.92 57.28 C19.72 40.99, 36.76 22.32, 53.47 1.43 M4.92 57.28 C18.86 42.29, 32.32 24.68, 53.47 1.43 M8.59 59.15 C23.39 39.49, 41.36 19.69, 58.46 1.79 M8.59 59.15 C28.64 35.32, 49.16 13.24, 58.46 1.79 M13.58 59.51 C23.59 47.73, 36.02 34.01, 64.1 1.39 M13.58 59.51 C30.03 39.07, 47.56 19.05, 64.1 1.39 M19.22 59.11 C33.77 43.01, 52.05 21.6, 69.09 1.75 M19.22 59.11 C32.62 43.24, 48.39 25.65, 69.09 1.75 M24.21 59.47 C38.69 46.51, 52.39 31.05, 74.73 1.36 M24.21 59.47 C41.09 39.17, 59.86 18.93, 74.73 1.36 M29.85 59.08 C48.03 38.78, 68.07 16.92, 79.72 1.72 M29.85 59.08 C42.71 44.98, 56.69 28.88, 79.72 1.72 M34.84 59.44 C49.69 45.72, 62.12 29.31, 85.36 1.33 M34.84 59.44 C50.6 40.24, 66.5 22.25, 85.36 1.33 M40.49 59.04 C51.16 44.24, 62.81 30.18, 90.35 1.69 M40.49 59.04 C54.38 44.42, 65.78 30, 90.35 1.69 M45.47 59.4 C59.9 39.85, 76.7 20.09, 95.33 2.05 M45.47 59.4 C63.63 36.47, 83.97 13.89, 95.33 2.05 M50.46 59.76 C68.43 38.15, 84.8 19.5, 100.98 1.65 M50.46 59.76 C63.01 44.87, 75.39 31.43, 100.98 1.65 M56.1 59.37 C72.81 38.64, 92.63 18.66, 105.96 2.01 M56.1 59.37 C72.21 40.55, 90.77 20.76, 105.96 2.01 M61.09 59.73 C73.64 44.19, 86.31 31.35, 111.61 1.62 M61.09 59.73 C73.8 44.52, 85.58 31.41, 111.61 1.62 M66.73 59.33 C81.62 41.53, 94.89 26.65, 116.59 1.98 M66.73 59.33 C81.29 43.36, 95.13 26.73, 116.59 1.98 M71.72 59.69 C85.68 41.62, 102.3 23.76, 122.24 1.58 M71.72 59.69 C86.95 42.02, 101.81 26.21, 122.24 1.58 M77.36 59.3 C92.94 42.64, 110.31 22.51, 127.22 1.94 M77.36 59.3 C87.85 47.23, 97.99 35.59, 127.22 1.94 M82.35 59.66 C94.46 45.45, 104.06 30.3, 132.87 1.55 M82.35 59.66 C98.59 41.65, 112.25 23.84, 132.87 1.55 M87.99 59.27 C100.88 41.14, 116.56 24.76, 137.85 1.91 M87.99 59.27 C108.36 36.98, 127.2 15.66, 137.85 1.91 M92.98 59.63 C101.43 46.85, 111.26 36.48, 142.84 2.27 M92.98 59.63 C111.65 37.15, 129.64 16.58, 142.84 2.27 M97.97 59.99 C109.43 46.68, 117.59 36.57, 148.48 1.87 M97.97 59.99 C116.51 39.99, 134.6 18.76, 148.48 1.87 M103.61 59.59 C119.49 42.07, 131.2 25.26, 153.47 2.23 M103.61 59.59 C118.68 41.14, 135.93 24.28, 153.47 2.23 M108.6 59.95 C119.54 47.21, 129.19 35.96, 159.11 1.84 M108.6 59.95 C128.16 37.75, 148.91 14.63, 159.11 1.84 M114.24 59.56 C125.68 47.04, 135.68 33.62, 164.1 2.2 M114.24 59.56 C128.23 41.8, 142.36 26.21, 164.1 2.2 M119.23 59.92 C140.85 36.7, 158.69 16.15, 169.74 1.8 M119.23 59.92 C131.02 45.99, 141.7 32.38, 169.74 1.8 M124.87 59.52 C137.2 44.54, 146.59 31.48, 174.73 2.16 M124.87 59.52 C144.33 36.16, 162.83 14.09, 174.73 2.16 M129.86 59.88 C148.11 40.49, 167.33 16.84, 180.37 1.77 M129.86 59.88 C146.56 43.03, 161.9 24.54, 180.37 1.77 M135.5 59.49 C146.65 46.54, 158.04 31.83, 185.36 2.13 M135.5 59.49 C148.59 43.99, 160.82 29.5, 185.36 2.13 M140.49 59.85 C152.85 45.59, 165.59 30.54, 190.35 2.49 M140.49 59.85 C156.87 42.05, 172.93 24.47, 190.35 2.49 M145.47 60.21 C158.98 41.32, 174.64 24.73, 196.65 1.34 M145.47 60.21 C159.18 45.61, 171.57 30.14, 196.65 1.34 M151.12 59.81 C169.15 38.86, 190.03 17.4, 200.32 3.21 M151.12 59.81 C165.68 42.99, 179.87 27.57, 200.32 3.21 M156.1 60.17 C167.8 49.99, 178.38 33.95, 203.34 5.83 M156.1 60.17 C172.18 42.39, 188 24.4, 203.34 5.83 M161.75 59.78 C178.44 41.29, 194.86 22.28, 205.05 9.97 M161.75 59.78 C176.24 44.23, 187.91 29.13, 205.05 9.97 M166.73 60.14 C175.33 45.95, 189.87 34.62, 207.41 13.35 M166.73 60.14 C179.91 44.96, 191.05 32.56, 207.41 13.35 M172.38 59.74 C184.52 45.23, 195.11 34.88, 207.15 19.74 M172.38 59.74 C185.11 45.7, 198.48 29.32, 207.15 19.74 M177.36 60.1 C184.38 51.23, 190.94 44.66, 206.89 26.14 M177.36 60.1 C187.52 47.36, 199.02 35.37, 206.89 26.14 M183.01 59.71 C188.54 54.16, 192.63 47.91, 206.63 32.54 M183.01 59.71 C190.39 50.57, 199.29 41.58, 206.63 32.54 M187.99 60.07 C192.26 51.54, 199.29 46.16, 207.02 38.18 M187.99 60.07 C193.51 54.56, 198.21 48.25, 207.02 38.18 M191.67 61.94 C193.5 58.3, 198.72 56.03, 206.76 44.58 M191.67 61.94 C195.18 58.2, 197.52 55.65, 206.76 44.58" stroke="#ced4da" stroke-width="0.5" fill="none"></path><path d="M15 0 M15 0 C69.95 -0.13, 125.65 2.27, 190 0 M15 0 C66.52 1.11, 118.26 0.88, 190 0 M190 0 C200.8 -1.82, 205.58 6.33, 205 15 M190 0 C201.84 1.56, 204.77 6.68, 205 15 M205 15 C204.77 26.8, 203.8 36.8, 205 45 M205 15 C205.62 21.1, 204.7 27.31, 205 45 M205 45 C206.62 56.3, 201.44 61.36, 190 60 M205 45 C207.14 55.67, 198.6 58.18, 190 60 M190 60 C137.66 61.73, 86.36 62.7, 15 60 M190 60 C150.07 59.99, 112 60.59, 15 60 M15 60 C4.3 58.12, 1.51 53.81, 0 45 M15 60 C6.46 57.86, 0.54 53.49, 0 45 M0 45 C0.8 36.39, 0.29 22.71, 0 15 M0 45 C-0.78 37.48, -0.62 28.76, 0 15 M0 15 C-1.97 3.1, 6.61 -0.54, 15 0 M0 15 C2.22 3.15, 3.77 1.81, 15 0" stroke="#000000" stroke-width="1" fill="none"></path></g><g transform="translate(854 58.5) rotate(0 46 25)"><text x="46" y="18" font-family="Virgil, Segoe UI Emoji" font-size="20px" fill="#000000" text-anchor="middle" style="white-space: pre;" direction="ltr">Container</text><text x="46" y="43" font-family="Virgil, Segoe UI Emoji" font-size="20px" fill="#000000" text-anchor="middle" style="white-space: pre;" direction="ltr">(Flask)</text></g><g stroke-linecap="round"><g stroke-opacity="0.2" fill-opacity="0.2" transform="translate(755.0700767309027 164.12650651678274) rotate(0 27.76025389082588 -19.43621634304438)"><path d="M0.37 -0.05 C9.91 -6.39, 47.29 -32.65, 56.42 -38.82 M-0.9 -1.12 C8.64 -7.25, 46.78 -31.36, 55.96 -37.65" stroke="#000000" stroke-width="1" fill="none"></path></g><g stroke-opacity="0.2" fill-opacity="0.2" transform="translate(755.0700767309027 164.12650651678274) rotate(0 27.76025389082588 -19.43621634304438)"><path d="M37.91 -12.07 C41.13 -19.78, 48.15 -23.68, 55.43 -38.9 M37.85 -14.06 C43.15 -21.34, 48.81 -28.83, 55.48 -38.02" stroke="#000000" stroke-width="1" fill="none"></path></g><g stroke-opacity="0.2" fill-opacity="0.2" transform="translate(755.0700767309027 164.12650651678274) rotate(0 27.76025389082588 -19.43621634304438)"><path d="M26.68 -29.24 C32.37 -33.03, 41.98 -32.97, 55.43 -38.9 M26.61 -31.23 C35.35 -33.29, 44.38 -35.62, 55.48 -38.02" stroke="#000000" stroke-width="1" fill="none"></path></g></g><mask></mask><g stroke-linecap="round" transform="translate(10 131) rotate(0 126.5 49)"><path d="M5.87 6.42 C5.87 6.42, 5.87 6.42, 5.87 6.42 M5.87 6.42 C5.87 6.42, 5.87 6.42, 5.87 6.42 M0.36 18.86 C4.04 14.7, 7.36 9.76, 14.79 2.26 M0.36 18.86 C5.16 14.1, 9.11 8.92, 14.79 2.26 M0.09 25.26 C5.49 17.63, 11.44 11.79, 21.09 1.11 M0.09 25.26 C7.06 18.21, 12.96 9.62, 21.09 1.11 M0.49 30.9 C4.23 26.02, 12.44 19, 26.07 1.47 M0.49 30.9 C6.61 23.66, 15.13 15.65, 26.07 1.47 M0.23 37.3 C10.26 28.28, 17.79 17.65, 31.72 1.07 M0.23 37.3 C12.56 23.82, 23.64 10.6, 31.72 1.07 M0.62 42.94 C13.34 30.16, 25.43 16.01, 36.7 1.43 M0.62 42.94 C8.9 31.37, 19.1 21.16, 36.7 1.43 M0.36 49.34 C11.31 36.66, 21.82 25.52, 42.35 1.04 M0.36 49.34 C16.49 32.15, 30.84 15.78, 42.35 1.04 M0.1 55.74 C13.09 41.15, 27.77 22.42, 47.34 1.4 M0.1 55.74 C16.82 36.47, 35.15 15.52, 47.34 1.4 M0.49 61.38 C15.42 41.13, 32.89 24.19, 52.32 1.76 M0.49 61.38 C12.05 48.22, 22.61 35.12, 52.32 1.76 M0.23 67.78 C13.69 53.22, 24.91 38.66, 57.97 1.36 M0.23 67.78 C14.58 49.74, 30.73 31.81, 57.97 1.36 M0.63 73.42 C14.33 58.57, 30.82 42.1, 62.95 1.72 M0.63 73.42 C21.19 50.05, 41.85 25.96, 62.95 1.72 M0.37 79.82 C17.52 61.08, 31.31 43.93, 68.6 1.33 M0.37 79.82 C16.84 60.37, 33.73 41.15, 68.6 1.33 M2.07 83.95 C20.78 61.12, 39.11 40.16, 73.58 1.69 M2.07 83.95 C25.01 57.93, 49.24 30.9, 73.58 1.69 M3.78 88.09 C28.47 60.47, 53.03 33.1, 79.23 1.29 M3.78 88.09 C28.15 59.65, 52.79 31.31, 79.23 1.29 M6.14 91.46 C31.48 61.85, 57.58 34.6, 84.21 1.65 M6.14 91.46 C25.73 67.75, 45.32 46.73, 84.21 1.65 M9.16 94.09 C37.78 61.57, 65.41 32.14, 89.86 1.26 M9.16 94.09 C39.3 59.76, 69.23 24.36, 89.86 1.26 M12.18 96.71 C34.89 68.43, 61.06 42.17, 94.84 1.62 M12.18 96.71 C29.57 74.44, 49.15 51.23, 94.84 1.62 M15.85 98.58 C46.07 62.84, 76.22 29.21, 100.49 1.22 M15.85 98.58 C34.67 77.21, 52.16 55.71, 100.49 1.22 M20.84 98.94 C42.33 75.74, 64.1 51.32, 105.47 1.58 M20.84 98.94 C53.54 62.53, 85.85 24.35, 105.47 1.58 M25.83 99.3 C47.38 75.76, 64.08 54.73, 111.12 1.19 M25.83 99.3 C49.15 71.75, 72.97 44.27, 111.12 1.19 M31.47 98.91 C49.58 77.93, 68.99 59, 116.1 1.55 M31.47 98.91 C56.39 69.71, 81.18 40.94, 116.1 1.55 M36.46 99.27 C64.28 67.11, 94.23 33.81, 121.75 1.16 M36.46 99.27 C65.8 64.63, 94.26 31.41, 121.75 1.16 M42.1 98.87 C64.76 74.63, 88.6 48.95, 126.73 1.52 M42.1 98.87 C74.76 61.57, 106.21 24.21, 126.73 1.52 M47.09 99.23 C64.14 81.75, 81.67 59.25, 132.38 1.12 M47.09 99.23 C68.39 75.47, 92 49.92, 132.38 1.12 M52.08 99.59 C84.94 62.79, 117.98 25.83, 137.36 1.48 M52.08 99.59 C76.76 69.29, 103.56 39.96, 137.36 1.48 M57.72 99.2 C80.2 73.97, 101.58 47.62, 143.01 1.09 M57.72 99.2 C87.78 64.08, 119.55 27.54, 143.01 1.09 M62.71 99.56 C81.77 78.44, 102.1 54.86, 147.99 1.45 M62.71 99.56 C92.24 66.46, 121.37 31.22, 147.99 1.45 M68.35 99.16 C96.2 64.84, 126.27 27.53, 153.64 1.05 M68.35 99.16 C92.26 70.4, 115.35 44.28, 153.64 1.05 M73.34 99.52 C102.87 63.66, 133.24 31.82, 158.62 1.41 M73.34 99.52 C94.86 74.05, 119.34 47.11, 158.62 1.41 M78.98 99.13 C108.84 64.14, 139.13 29.12, 163.61 1.77 M78.98 99.13 C107.57 65.14, 136.57 32.23, 163.61 1.77 M83.97 99.49 C116.3 60.55, 148.77 24.31, 169.25 1.38 M83.97 99.49 C102.28 79.17, 118.57 58.5, 169.25 1.38 M89.61 99.1 C122.35 64, 150.6 26.85, 174.24 1.74 M89.61 99.1 C116.73 67.35, 143.02 35.51, 174.24 1.74 M94.6 99.46 C116.32 75.08, 135.86 51.83, 179.88 1.34 M94.6 99.46 C113.25 77.97, 130.31 57.7, 179.88 1.34 M100.24 99.06 C130.39 64.18, 161.16 31.76, 184.87 1.7 M100.24 99.06 C131.42 64.69, 161.83 29.91, 184.87 1.7 M105.23 99.42 C132.74 66.14, 161.43 33.04, 190.51 1.31 M105.23 99.42 C130.08 68.8, 156.92 37.77, 190.51 1.31 M110.87 99.03 C136.55 72.18, 159.24 40.77, 195.5 1.67 M110.87 99.03 C144.5 60.65, 176.42 22.07, 195.5 1.67 M115.86 99.39 C144.08 63.21, 175.5 31.35, 201.14 1.27 M115.86 99.39 C133.06 78.07, 150.74 57.84, 201.14 1.27 M121.5 98.99 C137.63 78.17, 156.81 58.07, 206.13 1.63 M121.5 98.99 C148.1 66.77, 176.79 34.04, 206.13 1.63 M126.49 99.35 C147.37 73.43, 169.69 49.65, 211.77 1.24 M126.49 99.35 C145.22 78.09, 163.56 56.67, 211.77 1.24 M132.13 98.96 C162.92 64.25, 189.01 34.67, 216.76 1.6 M132.13 98.96 C158.97 68.03, 184.31 39.58, 216.76 1.6 M137.12 99.32 C163.69 67.27, 191.34 34.24, 222.4 1.21 M137.12 99.32 C165.55 66.95, 195.16 32.78, 222.4 1.21 M142.76 98.92 C163.63 76.27, 179.77 55.58, 228.7 0.06 M142.76 98.92 C160.79 77.52, 177.95 59.13, 228.7 0.06 M147.75 99.28 C172.47 69.08, 197.02 41.61, 233.03 1.17 M147.75 99.28 C177.62 67.14, 206.35 33.29, 233.03 1.17 M153.39 98.89 C182.1 66.19, 209.46 34.17, 238.02 1.53 M153.39 98.89 C181.61 66.01, 209.66 34.81, 238.02 1.53 M158.38 99.25 C176.68 76.19, 194.05 53.79, 241.7 3.4 M158.38 99.25 C183.47 70.72, 209.03 42.72, 241.7 3.4 M164.02 98.85 C183.8 75.15, 207.84 46.3, 244.71 6.02 M164.02 98.85 C190.48 66.54, 219.18 34.58, 244.71 6.02 M169.01 99.21 C185.25 78.07, 202.33 61.81, 248.39 7.89 M169.01 99.21 C191.43 74.09, 213.59 47.72, 248.39 7.89 M173.99 99.57 C193.28 79.17, 209.76 61.02, 250.75 11.27 M173.99 99.57 C198.98 69.11, 224.15 40.14, 250.75 11.27 M179.64 99.18 C197.96 77.65, 221.01 54.72, 252.46 15.41 M179.64 99.18 C197.1 78.88, 214.92 58.35, 252.46 15.41 M184.62 99.54 C202.86 79.25, 220.4 59.69, 254.17 19.54 M184.62 99.54 C207.58 73.63, 232.04 45.3, 254.17 19.54 M190.27 99.15 C208.8 78.62, 226.24 57.4, 253.9 25.94 M190.27 99.15 C210.18 75.52, 230.26 53.16, 253.9 25.94 M195.25 99.51 C217.54 73.81, 238.14 48.91, 254.3 31.58 M195.25 99.51 C208.44 83.88, 221.11 68.03, 254.3 31.58 M200.9 99.11 C211.81 85.97, 225.58 70.8, 254.04 37.98 M200.9 99.11 C217.22 80.18, 234.32 59.09, 254.04 37.98 M205.88 99.47 C224.59 80.51, 241.43 59.34, 253.78 44.38 M205.88 99.47 C216.24 87.95, 225.44 75.94, 253.78 44.38 M211.53 99.08 C218.17 89.45, 228.42 79.67, 254.17 50.02 M211.53 99.08 C223.72 85.48, 236.33 71.73, 254.17 50.02 M216.51 99.44 C228.87 84.38, 239.15 72.25, 253.91 56.42 M216.51 99.44 C228.26 84.34, 242.43 70.67, 253.91 56.42 M222.16 99.04 C231.4 84.63, 241.92 72.83, 254.3 62.06 M222.16 99.04 C233.09 87.75, 241.71 75.79, 254.3 62.06 M227.14 99.4 C232.03 93.92, 239.08 83.64, 254.04 68.46 M227.14 99.4 C237.96 88.16, 248.68 74.84, 254.04 68.46 M231.47 100.52 C236.62 92.99, 242.56 88.14, 254.44 74.1 M231.47 100.52 C238.14 91.97, 245.16 84.08, 254.44 74.1 M237.77 99.37 C241.17 94.4, 248.09 88.23, 252.86 82.01 M237.77 99.37 C240.74 95.32, 244.64 92.61, 252.86 82.01" stroke="#ced4da" stroke-width="0.5" fill="none"></path><path d="M24.5 0 M24.5 0 C77.5 -0.44, 129.44 0.41, 228.5 0 M24.5 0 C73.32 -0.49, 121.56 -1.79, 228.5 0 M228.5 0 C244.07 0.9, 253.99 8.97, 253 24.5 M228.5 0 C243.19 -1.67, 255.04 9.41, 253 24.5 M253 24.5 C250.66 38.21, 253.99 54.69, 253 73.5 M253 24.5 C252.97 35.65, 252.21 44.94, 253 73.5 M253 73.5 C252.53 90.73, 244.1 97.02, 228.5 98 M253 73.5 C254.52 91.4, 244.87 98.56, 228.5 98 M228.5 98 C173.07 100.13, 118.13 97.71, 24.5 98 M228.5 98 C184.92 96.32, 143.25 96.14, 24.5 98 M24.5 98 C8.29 98.47, 0.75 90.91, 0 73.5 M24.5 98 C6.58 98.66, -1.51 89.89, 0 73.5 M0 73.5 C-0.7 61.46, -1.8 44.24, 0 24.5 M0 73.5 C0.25 63.61, 0.18 51.69, 0 24.5 M0 24.5 C1.25 6.93, 10.07 0.79, 24.5 0 M0 24.5 C-0.19 6.98, 6.67 -0.16, 24.5 0" stroke="#000000" stroke-width="1" fill="none"></path></g><g transform="translate(92 167.5) rotate(0 44.5 12.5)"><text x="44.5" y="18" font-family="Virgil, Segoe UI Emoji" font-size="20px" fill="#000000" text-anchor="middle" style="white-space: pre;" direction="ltr">Nosotros</text></g><g mask="url(#mask-3GSdZEzaVRGPxbNvSEWwx)" stroke-linecap="round"><g stroke-opacity="0.5" fill-opacity="0.5" transform="translate(273 183.61006343973952) rotate(0 129.85622520574373 16.06410662297006)"><path d="M1.06 -0.73 C44.52 4.68, 216.57 25.93, 259.55 31.31 M0.16 1.5 C43.61 7.22, 215.89 27.61, 258.89 32.86" stroke="#000000" stroke-width="1" fill="none"></path></g><g stroke-opacity="0.5" fill-opacity="0.5" transform="translate(273 183.61006343973952) rotate(0 129.85622520574373 16.06410662297006)"><path d="M228.46 40.6 C235.67 38, 241.98 37.13, 257.95 34.55 M230.22 39.13 C237.58 38.08, 246.77 35.25, 259.11 33.84" stroke="#000000" stroke-width="1" fill="none"></path></g><g stroke-opacity="0.5" fill-opacity="0.5" transform="translate(273 183.61006343973952) rotate(0 129.85622520574373 16.06410662297006)"><path d="M230.9 20.23 C237.42 21.76, 243.24 25, 257.95 34.55 M232.67 18.76 C239.25 23.51, 247.74 26.47, 259.11 33.84" stroke="#000000" stroke-width="1" fill="none"></path></g></g><mask id="mask-3GSdZEzaVRGPxbNvSEWwx"><rect x="0" y="0" fill="#fff" width="632" height="314.9070301634803"></rect><rect x="358.5" y="186.7585468016099" fill="#000" width="88" height="25" opacity="1"></rect></mask><g stroke-opacity="0.5" fill-opacity="0.5" transform="translate(358.5 186.7585468016099) rotate(0 44.356225205743726 12.915623261099682)"><text x="44" y="18" font-family="Virgil, Segoe UI Emoji" font-size="20px" fill="#495057" text-anchor="middle" style="white-space: pre;" direction="ltr">Http: 80</text></g><g stroke-linecap="round"><g stroke-opacity="0.3" fill-opacity="0.3" transform="translate(841.7009529032016 127) rotate(0 -39.99572618008676 27.28290359891372)"><path d="M-0.49 -0.57 C-13.92 8.8, -66.18 46.04, -79.5 55.14" stroke="#000000" stroke-width="1.5" fill="none" stroke-dasharray="8 9"></path></g><g stroke-opacity="0.3" fill-opacity="0.3" transform="translate(841.7009529032016 127) rotate(0 -39.99572618008676 27.28290359891372)"><path d="M-63.23 30.9 C-67.46 38.93, -76.11 49.25, -78.6 54.4" stroke="#000000" stroke-width="1.5" fill="none"></path></g><g stroke-opacity="0.3" fill-opacity="0.3" transform="translate(841.7009529032016 127) rotate(0 -39.99572618008676 27.28290359891372)"><path d="M-51.47 47.72 C-60.15 49.12, -73.4 52.86, -78.6 54.4" stroke="#000000" stroke-width="1.5" fill="none"></path></g></g><mask></mask><g stroke-linecap="round"><g stroke-opacity="0.4" fill-opacity="0.4" transform="translate(537 256.5660574973107) rotate(0 -128.35912526063623 -18.28523595179371)"><path d="M1.13 1.19 C-41.94 -5.3, -214.8 -31.31, -257.84 -37.76" stroke="#000000" stroke-width="1.5" fill="none" stroke-dasharray="8 9"></path></g><g stroke-opacity="0.4" fill-opacity="0.4" transform="translate(537 256.5660574973107) rotate(0 -128.35912526063623 -18.28523595179371)"><path d="M-226.46 -45.12 C-237.25 -41.67, -246.94 -39.28, -257.31 -36.66" stroke="#000000" stroke-width="1.5" fill="none"></path></g><g stroke-opacity="0.4" fill-opacity="0.4" transform="translate(537 256.5660574973107) rotate(0 -128.35912526063623 -18.28523595179371)"><path d="M-229.51 -24.83 C-239.45 -28.38, -248.09 -32.96, -257.31 -36.66" stroke="#000000" stroke-width="1.5" fill="none"></path></g></g><mask></mask><g stroke-opacity="0.3" fill-opacity="0.3" stroke-linecap="round" transform="translate(458 10) rotate(0 298 164)"><path d="M32 0 M32 0 C169.65 -1.36, 308.6 -1.37, 564 0 M564 0 C586.9 0, 595.1 9.92, 596 32 M596 32 C597.85 111.61, 597.48 187.94, 596 296 M596 296 C594.25 318.44, 586.45 326.24, 564 328 M564 328 C375.5 328.83, 186.19 329.56, 32 328 M32 328 C9.39 326.57, 0.15 317.6, 0 296 M0 296 C-3.35 237.81, -2.44 176.93, 0 32 M0 32 C0.94 9.43, 11.15 -0.1, 32 0" stroke="#495057" stroke-width="4.5" fill="none" stroke-dasharray="8 12"></path></g><g stroke-linecap="round" transform="translate(684 264) rotate(0 72.5 39)"><path d="M67.03 -0.69 C77.45 -1.98, 90.1 0.06, 100.27 2.48 C110.43 4.9, 120.7 8.96, 128.01 13.83 C135.32 18.71, 141.85 25.66, 144.11 31.74 C146.36 37.81, 144.81 44.67, 141.55 50.28 C138.28 55.88, 132.34 61.09, 124.54 65.38 C116.73 69.67, 105.22 73.87, 94.72 76 C84.22 78.14, 72.49 79.22, 61.53 78.2 C50.57 77.18, 38.04 73.57, 28.94 69.88 C19.84 66.19, 11.74 61.59, 6.93 56.07 C2.12 50.56, -0.38 42.89, 0.09 36.79 C0.55 30.69, 4.1 24.56, 9.73 19.47 C15.36 14.38, 23.93 9.46, 33.86 6.24 C43.78 3.02, 62.96 1.07, 69.29 0.13 C75.62 -0.8, 71.85 0.13, 71.83 0.62" stroke="none" stroke-width="0" fill="#fab005"></path><path d="M104.19 3.52 C114.25 5.56, 123.54 11.81, 130.11 16.77 C136.68 21.72, 141.84 27.29, 143.6 33.24 C145.36 39.19, 144.12 46.7, 140.68 52.48 C137.24 58.25, 131.12 63.8, 122.98 67.88 C114.84 71.95, 102.92 75.52, 91.83 76.93 C80.74 78.34, 67.32 77.53, 56.45 76.33 C45.58 75.14, 35.01 73.45, 26.6 69.75 C18.19 66.05, 10.28 59.99, 5.98 54.11 C1.68 48.23, -0.19 40.58, 0.8 34.48 C1.8 28.38, 5.93 22.29, 11.94 17.52 C17.95 12.74, 26.94 8.86, 36.87 5.82 C46.8 2.78, 58.81 -0.86, 71.52 -0.73 C84.22 -0.61, 104.92 4.49, 113.1 6.57 C121.29 8.66, 121.35 11.18, 120.63 11.77" stroke="#495057" stroke-width="4.5" fill="none" stroke-dasharray="8 12"></path></g><g transform="translate(704.5 290.5) rotate(0 52 12.5)"><text x="52" y="18" font-family="Virgil, Segoe UI Emoji" font-size="20px" fill="#495057" text-anchor="middle" style="white-space: pre;" direction="ltr">Postgresql</text></g><g mask="url(#mask-SCtXxuq6358c1qgNCv9MZ)" stroke-linecap="round"><g transform="translate(274.111856713698 125) rotate(0 255.22752427658497 -32.298338316341386)"><path d="M0.97 1.18 C39.71 -9.45, 148.12 -56.05, 232.87 -64.05 C317.63 -72.04, 463.35 -49.84, 509.48 -46.82" stroke="#495057" stroke-width="2.5" fill="none" stroke-dasharray="8 10"></path></g><g transform="translate(274.111856713698 125) rotate(0 255.22752427658497 -32.298338316341386)"><path d="M482.35 -39.51 C488.43 -41.21, 499.29 -43.35, 510.32 -45.31" stroke="#495057" stroke-width="2.5" fill="none"></path></g><g transform="translate(274.111856713698 125) rotate(0 255.22752427658497 -32.298338316341386)"><path d="M484.44 -59.92 C489.76 -54.76, 499.93 -50.06, 510.32 -45.31" stroke="#495057" stroke-width="2.5" fill="none"></path></g></g><mask id="mask-SCtXxuq6358c1qgNCv9MZ"><rect x="0" y="0" fill="#fff" width="883.0115698084999" height="288"></rect><rect x="354.5" y="37" fill="#000" width="305" height="50" opacity="1"></rect></mask><g transform="translate(354.5 37) rotate(0 174.83938099028296 55.701661683658614)"><text x="152.5" y="18" font-family="Virgil, Segoe UI Emoji" font-size="20px" fill="#495057" text-anchor="middle" style="white-space: pre;" direction="ltr">Reverse Shell</text><text x="152.5" y="43" font-family="Virgil, Segoe UI Emoji" font-size="20px" fill="#495057" text-anchor="middle" style="white-space: pre;" direction="ltr">Pivoting R:5431:172.22.0.1:5432</text></g><g mask="url(#mask-8gVk8cR95wjkJbg3ZRNh2)" stroke-linecap="round"><g transform="translate(983 124) rotate(0 -77.67135114856069 74.10870782919227)"><path d="M0.8 1.13 C-25.07 25.71, -129.64 122.54, -156.14 147.09" stroke="#495057" stroke-width="2.5" fill="none" stroke-dasharray="8 10"></path></g><g transform="translate(983 124) rotate(0 -77.67135114856069 74.10870782919227)"><path d="M-140.56 121.84 C-147.07 124.41, -147.88 131.31, -157.69 146.63" stroke="#495057" stroke-width="2.5" fill="none"></path></g><g transform="translate(983 124) rotate(0 -77.67135114856069 74.10870782919227)"><path d="M-126.61 136.89 C-136.15 136.23, -140.04 139.81, -157.69 146.63" stroke="#495057" stroke-width="2.5" fill="none"></path></g></g><mask id="mask-8gVk8cR95wjkJbg3ZRNh2"><rect x="0" y="0" fill="#fff" width="1240" height="372"></rect><rect x="875" y="185.5" fill="#000" width="59" height="25" opacity="1"></rect></mask><g transform="translate(875 185.5) rotate(0 30.32864885143931 12.60870782919227)"><text x="29.5" y="18" font-family="Virgil, Segoe UI Emoji" font-size="20px" fill="#495057" text-anchor="middle" style="white-space: pre;" direction="ltr">:5432</text></g><g mask="url(#mask-RO3UREQw9jJfg3edgTPQr)" stroke-linecap="round"><g transform="translate(161 248) rotate(0 281.9239202897996 83.67245073433156)"><path d="M-1.13 -0.02 C42.54 27.42, 166.83 148.09, 261.18 164.81 C355.53 181.54, 514.31 110.9, 564.98 100.33" stroke="#495057" stroke-width="2.5" fill="none" stroke-dasharray="8 10"></path></g><g transform="translate(161 248) rotate(0 281.9239202897996 83.67245073433156)"><path d="M541.06 117.11 C546.2 114.53, 550.84 110.75, 565.6 101.06" stroke="#495057" stroke-width="2.5" fill="none"></path></g><g transform="translate(161 248) rotate(0 281.9239202897996 83.67245073433156)"><path d="M534.98 97.51 C541.54 99.46, 547.57 100.15, 565.6 101.06" stroke="#495057" stroke-width="2.5" fill="none"></path></g></g><mask id="mask-RO3UREQw9jJfg3edgTPQr"><rect x="0" y="0" fill="#fff" width="826" height="513"></rect><rect x="246.5" y="375.5" fill="#000" width="353" height="75" opacity="1"></rect></mask><g transform="translate(246.5 375.5) rotate(0 196.42392028979958 -43.82754926566844)"><text x="176.5" y="18" font-family="Virgil, Segoe UI Emoji" font-size="20px" fill="#495057" text-anchor="middle" style="white-space: pre;" direction="ltr">Virtualmente, mediante el pivoting</text><text x="176.5" y="43" font-family="Virgil, Segoe UI Emoji" font-size="20px" fill="#495057" text-anchor="middle" style="white-space: pre;" direction="ltr">accedemos a la BD desde nuestro </text><text x="176.5" y="68" font-family="Virgil, Segoe UI Emoji" font-size="20px" fill="#495057" text-anchor="middle" style="white-space: pre;" direction="ltr">localhost:5431</text></g></svg>