<svg version="1.1" xmlns="http://www.w3.org/2000/svg" viewBox="0 0 1039 381" width="1039" height="381">
  <!-- svg-source:excalidraw -->
  
  <defs>
    <style class="style-fonts">
      @font-face {
        font-family: "Virgil";
        src: url("https://excalidraw.com/Virgil.woff2");
      }
      @font-face {
        font-family: "Cascadia";
        src: url("https://excalidraw.com/Cascadia.woff2");
      }
    </style>
  </defs>
  <rect x="0" y="0" width="1039" height="381" fill="#ffffff"></rect><g stroke-linecap="round" transform="translate(10 193.0851509726815) rotate(0 94 42.5)"><path d="M3.19 8.07 C3.19 8.07, 3.19 8.07, 3.19 8.07 M3.19 8.07 C3.19 8.07, 3.19 8.07, 3.19 8.07 M3.98 19.36 C5.93 14.63, 10.2 13.63, 13.82 8.04 M3.98 19.36 C6.98 16.34, 10.31 12.06, 13.82 8.04 M4.11 31.4 C12.25 21.24, 18.5 12.2, 27.07 4.98 M4.11 31.4 C11.98 24.09, 17.59 15.9, 27.07 4.98 M4.24 43.44 C9.83 34.37, 18.56 25.65, 37.7 4.95 M4.24 43.44 C17.7 28.69, 30.82 14.17, 37.7 4.95 M3.72 56.23 C14.55 42.85, 24.54 31.35, 48.33 4.91 M3.72 56.23 C19.54 38.1, 35.68 20.39, 48.33 4.91 M1.89 70.54 C23.63 49.22, 41.85 23.01, 58.96 4.88 M1.89 70.54 C20.24 48.53, 39.07 27.01, 58.96 4.88 M5.3 78.81 C27.05 52.97, 51.35 24.28, 69.59 4.85 M5.3 78.81 C20.76 62.3, 34.95 44.73, 69.59 4.85 M11.34 84.06 C36.15 56.83, 61.53 25.83, 80.22 4.81 M11.34 84.06 C33.97 55.26, 57.8 28.43, 80.22 4.81 M20 86.29 C37.25 68.59, 53.05 45.02, 90.85 4.78 M20 86.29 C38.42 62.87, 58.1 41.07, 90.85 4.78 M27.35 90.02 C51.52 64.51, 71.98 37.86, 101.48 4.74 M27.35 90.02 C44.62 69.36, 63.1 48.38, 101.48 4.74 M37.98 89.99 C59.58 65.66, 82.01 42.49, 112.11 4.71 M37.98 89.99 C56.51 69.75, 73.15 49.61, 112.11 4.71 M48.61 89.96 C70.37 64.99, 89.17 43.17, 122.74 4.67 M48.61 89.96 C74.64 57.35, 102.49 26.86, 122.74 4.67 M59.24 89.92 C82.32 65.09, 103.06 42.36, 132.72 5.39 M59.24 89.92 C84.32 61.14, 109.25 32.75, 132.72 5.39 M69.87 89.89 C95.73 60.09, 121 32.71, 143.35 5.36 M69.87 89.89 C90.37 66.35, 111.23 40.99, 143.35 5.36 M80.5 89.85 C107.6 58.23, 133.94 30.3, 153.98 5.32 M80.5 89.85 C109.02 58.02, 135.77 25.68, 153.98 5.32 M91.13 89.82 C117.71 62.17, 140.46 32.83, 167.89 1.52 M91.13 89.82 C114.98 62.51, 136.69 35.52, 167.89 1.52 M101.1 90.54 C131.16 58.5, 159.58 22.87, 177.21 2.99 M101.1 90.54 C117.94 70.78, 136.87 49.62, 177.21 2.99 M111.73 90.5 C134.33 62.86, 158.39 33.25, 184.56 6.73 M111.73 90.5 C136.03 61.5, 162.01 34.23, 184.56 6.73 M122.36 90.47 C144.65 64.33, 170.92 35.3, 189.94 12.73 M122.36 90.47 C145.4 63.22, 171.34 33.82, 189.94 12.73 M132.99 90.43 C154.68 67.05, 176.48 41.34, 193.35 21 M132.99 90.43 C149.31 71.96, 164.39 54.2, 193.35 21 M143.62 90.4 C154.97 75.74, 171.01 62.41, 193.48 33.04 M143.62 90.4 C158.76 73.29, 174.19 55.87, 193.48 33.04 M154.25 90.36 C166.68 76.53, 179.93 61.99, 193.62 45.08 M154.25 90.36 C168.98 74.48, 182.65 57.14, 193.62 45.08 M168.16 86.56 C179.26 75.16, 185.59 63.24, 193.75 57.12 M168.16 86.56 C176.95 75.77, 186.42 65.81, 193.75 57.12" stroke="#ced4da" stroke-width="1" fill="none"></path><path d="M21.25 0 M21.25 0 C76.47 -2.16, 127.64 0.58, 166.75 0 M166.75 0 C180.21 -0.86, 189.65 8.42, 188 21.25 M188 21.25 C190.27 36.78, 188.11 54.88, 188 63.75 M188 63.75 C187.84 78.82, 179.55 85.69, 166.75 85 M166.75 85 C118.56 86.23, 71.37 83.87, 21.25 85 M21.25 85 C5.37 85.92, -1.32 76.77, 0 63.75 M0 63.75 C0.04 52.25, -0.52 41.5, 0 21.25 M0 21.25 C0.6 8.9, 6.45 -1.12, 21.25 0" stroke="#495057" stroke-width="2.5" fill="none" stroke-dasharray="8 10"></path></g><g transform="translate(42.5 198.0851509726815) rotate(0 61.5 25)"><text x="61.5" y="18" font-family="Virgil, Segoe UI Emoji" font-size="20px" fill="#495057" text-anchor="middle" style="white-space: pre;" direction="ltr">Attacker</text><text x="61.5" y="43" font-family="Virgil, Segoe UI Emoji" font-size="20px" fill="#495057" text-anchor="middle" style="white-space: pre;" direction="ltr">192.168.1.138</text></g><g stroke-linecap="round" transform="translate(502 112.5851509726815) rotate(0 263.5 129.5)"><path d="M7.86 8.16 C7.86 8.16, 7.86 8.16, 7.86 8.16 M7.86 8.16 C7.86 8.16, 7.86 8.16, 7.86 8.16 M2.75 26.24 C7.32 22.33, 13.02 14.46, 21.12 5.11 M2.75 26.24 C9.47 18.67, 16.38 11.6, 21.12 5.11 M2.88 38.28 C8.34 30.23, 16.38 24.68, 34.37 2.05 M2.88 38.28 C9.98 30.39, 18.39 20.72, 34.37 2.05 M2.36 51.07 C14.94 36.89, 25.58 27.25, 45 2.02 M2.36 51.07 C19.83 32.18, 34.49 14.96, 45 2.02 M2.49 63.11 C22.47 42.95, 39.22 20.21, 55.63 1.98 M2.49 63.11 C17.37 45.82, 31.87 28.21, 55.63 1.98 M2.62 75.16 C23.38 49.7, 44.92 24.93, 66.26 1.95 M2.62 75.16 C24.48 50.25, 43.7 27.33, 66.26 1.95 M2.76 87.2 C30.11 53.16, 59.24 23.15, 76.89 1.91 M2.76 87.2 C22.44 64.86, 42.19 42.3, 76.89 1.91 M2.23 99.99 C24.57 74.24, 46.46 47.3, 87.52 1.88 M2.23 99.99 C33.1 63.9, 65.74 26.44, 87.52 1.88 M2.37 112.03 C39.97 66.63, 79.58 23.54, 98.15 1.85 M2.37 112.03 C39.62 68.87, 76.25 28.07, 98.15 1.85 M2.5 124.07 C31.4 90.94, 58.83 60.2, 108.78 1.81 M2.5 124.07 C25.35 97.27, 47.35 71.8, 108.78 1.81 M2.63 136.11 C38.08 94.66, 78.39 49.67, 119.41 1.78 M2.63 136.11 C35.19 98.01, 70.49 58.57, 119.41 1.78 M2.11 148.91 C53.18 89.1, 106.15 30.91, 130.04 1.74 M2.11 148.91 C47.58 98.45, 91.8 47.06, 130.04 1.74 M2.24 160.95 C45.5 110.08, 91.69 55.51, 140.67 1.71 M2.24 160.95 C35.4 122.37, 69.3 82.97, 140.67 1.71 M2.38 172.99 C48.98 116.36, 98.33 61.83, 150.65 2.43 M2.38 172.99 C37.37 135.36, 70.82 96.03, 150.65 2.43 M2.51 185.03 C40.15 140.18, 80.88 95.2, 161.28 2.39 M2.51 185.03 C60.01 117.51, 116.9 49.75, 161.28 2.39 M1.99 197.83 C61.56 130.92, 118.98 65.16, 171.91 2.36 M1.99 197.83 C59.7 131.68, 118.06 63.95, 171.91 2.36 M2.12 209.87 C66.38 135.88, 129.6 62.32, 182.54 2.32 M2.12 209.87 C65.71 134.44, 130.95 60.24, 182.54 2.32 M2.25 221.91 C51.29 165.47, 100.8 108.13, 193.17 2.29 M2.25 221.91 C57.96 157.79, 112.87 94.71, 193.17 2.29 M5.01 230.93 C74.93 155.5, 140.2 77.65, 203.8 2.26 M5.01 230.93 C46.73 184.42, 87.69 137.73, 203.8 2.26 M4.49 243.73 C78.36 158.21, 151.47 73, 214.43 2.22 M4.49 243.73 C67.42 170.35, 132.86 95.45, 214.43 2.22 M8.56 251.24 C93.7 154.2, 177.99 58.72, 225.06 2.19 M8.56 251.24 C67.42 185.37, 125.88 118.47, 225.06 2.19 M14.59 256.49 C68.9 193.09, 124.34 130.36, 235.69 2.15 M14.59 256.49 C95.58 162.76, 176.43 69.92, 235.69 2.15 M22.6 259.47 C85.14 186.79, 147.36 114.24, 246.32 2.12 M22.6 259.47 C109.74 156.48, 198.78 54.86, 246.32 2.12 M33.23 259.44 C77.52 209.08, 123.89 155.07, 256.95 2.08 M33.23 259.44 C90.63 195.06, 146.63 130.51, 256.95 2.08 M43.2 260.16 C111.55 182.76, 177.16 105.72, 267.58 2.05 M43.2 260.16 C90.19 206.24, 136.6 152.09, 267.58 2.05 M53.83 260.12 C106.82 201.41, 159.1 140.12, 278.21 2.01 M53.83 260.12 C121.11 182.96, 188.14 105.8, 278.21 2.01 M64.46 260.09 C132.99 182.42, 200.84 103.54, 288.84 1.98 M64.46 260.09 C113.15 206.84, 160.09 152.98, 288.84 1.98 M75.09 260.06 C162.27 158.26, 249.95 56.73, 299.47 1.94 M75.09 260.06 C132.7 192.7, 191.18 125.91, 299.47 1.94 M85.72 260.02 C143.9 192.67, 203.3 127.42, 310.1 1.91 M85.72 260.02 C150.04 187.48, 213.85 113.78, 310.1 1.91 M96.35 259.99 C158.72 187.22, 221.49 115.25, 320.73 1.88 M96.35 259.99 C146.75 202.81, 196.07 146.43, 320.73 1.88 M106.98 259.95 C183.16 173.53, 255.55 88.73, 331.36 1.84 M106.98 259.95 C194.5 157.28, 283.29 55.97, 331.36 1.84 M117.61 259.92 C192.06 170.45, 270.04 81.88, 341.99 1.81 M117.61 259.92 C182.78 183.25, 248.78 107.24, 341.99 1.81 M128.24 259.88 C211.25 163.58, 293.1 68.65, 352.62 1.77 M128.24 259.88 C189.94 188.24, 252.52 117.18, 352.62 1.77 M138.87 259.85 C222.3 163.94, 304.47 67.62, 363.25 1.74 M138.87 259.85 C212.82 174.61, 285.5 90.26, 363.25 1.74 M149.5 259.81 C203.3 198.74, 255.13 138.28, 373.88 1.7 M149.5 259.81 C230.68 165.95, 311.38 73.48, 373.88 1.7 M160.14 259.78 C248.22 157.64, 338.51 56.44, 383.85 2.42 M160.14 259.78 C248.54 159.45, 336.98 59.43, 383.85 2.42 M170.77 259.74 C229.64 189.52, 290.25 120.3, 394.48 2.39 M170.77 259.74 C224.16 196.91, 276.94 135.47, 394.48 2.39 M181.4 259.71 C226.83 204.77, 275.25 151.59, 405.11 2.35 M181.4 259.71 C247.35 183.71, 312.93 108.53, 405.11 2.35 M192.03 259.68 C239.34 203.95, 286.1 147.03, 415.74 2.32 M192.03 259.68 C237.38 208.23, 282.51 157.32, 415.74 2.32 M202.66 259.64 C258.32 198.61, 310.58 135.85, 426.37 2.29 M202.66 259.64 C260 191.11, 318.16 123.62, 426.37 2.29 M213.29 259.61 C281.04 182.58, 348.93 103.58, 437 2.25 M213.29 259.61 C281.79 183.05, 350.13 104.48, 437 2.25 M223.92 259.57 C279.96 197.48, 334.53 132.55, 447.63 2.22 M223.92 259.57 C281.39 190.24, 341.05 122.64, 447.63 2.22 M234.55 259.54 C318.5 163.1, 402.45 64.87, 458.26 2.18 M234.55 259.54 C297.87 186.21, 361.8 111.95, 458.26 2.18 M245.18 259.5 C302.47 192.66, 360.85 126.18, 468.89 2.15 M245.18 259.5 C310.75 183.68, 376.62 108.87, 468.89 2.15 M255.81 259.47 C336.23 166.53, 415.72 74.59, 479.52 2.11 M255.81 259.47 C317.92 189.6, 379.92 119.02, 479.52 2.11 M266.44 259.43 C319.02 199.9, 368.83 139.15, 490.15 2.08 M266.44 259.43 C325.72 189.33, 386.23 119.34, 490.15 2.08 M276.41 260.15 C360.16 164.42, 440.73 68.31, 499.47 3.55 M276.41 260.15 C335.92 192.96, 394.5 125.71, 499.47 3.55 M287.04 260.12 C368.36 162.15, 453.89 66.38, 508.13 5.78 M287.04 260.12 C363.21 171.05, 440.69 83.31, 508.13 5.78 M297.67 260.09 C346.85 200.36, 397.92 142.03, 517.45 7.26 M297.67 260.09 C347.24 202.95, 398.51 144.73, 517.45 7.26 M308.3 260.05 C361.23 197.08, 418.01 135.44, 522.83 13.26 M308.3 260.05 C351.3 209.37, 395.44 158.04, 522.83 13.26 M318.93 260.02 C392.39 173.09, 467.32 85.93, 527.56 20.02 M318.93 260.02 C367.91 202.17, 418 144.44, 527.56 20.02 M329.56 259.98 C381.52 204.14, 430.68 146.24, 527.69 32.06 M329.56 259.98 C399.37 178.98, 470.88 96.6, 527.69 32.06 M340.19 259.95 C390.94 203.64, 438.11 149.61, 527.17 44.86 M340.19 259.95 C401.74 189.75, 462.2 119.37, 527.17 44.86 M350.82 259.91 C407.7 194.84, 464.31 132.37, 527.3 56.9 M350.82 259.91 C395.31 210.99, 439.33 160.29, 527.3 56.9 M361.45 259.88 C398.38 216.23, 438.51 171.48, 527.43 68.94 M361.45 259.88 C398.36 218.88, 434.99 177.79, 527.43 68.94 M372.08 259.84 C412.62 216.31, 450.8 171.64, 527.57 80.98 M372.08 259.84 C423.25 197.54, 477.2 137.22, 527.57 80.98 M382.71 259.81 C426.49 212.66, 468.18 162.03, 527.7 93.02 M382.71 259.81 C412.27 226.85, 441.95 193.09, 527.7 93.02 M393.34 259.78 C440.66 202.93, 489.18 147.86, 527.18 105.81 M393.34 259.78 C426.35 222.07, 459.36 184.46, 527.18 105.81 M403.97 259.74 C431.33 229.41, 455.63 199.12, 527.31 117.86 M403.97 259.74 C436.75 222.81, 468.22 185.59, 527.31 117.86 M414.6 259.71 C445.77 225.72, 472.62 190.44, 527.44 129.9 M414.6 259.71 C458.7 211.42, 501.06 162.02, 527.44 129.9 M425.23 259.67 C456.85 225.59, 484.34 189.37, 527.58 141.94 M425.23 259.67 C458.9 219.3, 494.8 177.67, 527.58 141.94 M435.86 259.64 C460.89 232.59, 481.73 207.82, 527.71 153.98 M435.86 259.64 C465.85 227.24, 493.82 194.52, 527.71 153.98 M446.49 259.6 C466.83 235.56, 484.05 213.44, 527.19 166.77 M446.49 259.6 C470.99 229.72, 496.84 202.65, 527.19 166.77 M457.12 259.57 C480.12 233.92, 502.62 207.01, 527.32 178.81 M457.12 259.57 C473.77 240.18, 490.82 221.87, 527.32 178.81 M467.75 259.53 C492.9 230.08, 514.22 204.6, 527.45 190.86 M467.75 259.53 C488.34 236.38, 511.16 210.42, 527.45 190.86 M478.38 259.5 C497.85 237.02, 515.01 218.47, 527.59 202.9 M478.38 259.5 C491.13 243.95, 504.42 229.44, 527.59 202.9 M489.01 259.46 C505.24 242.18, 518.1 226.73, 527.72 214.94 M489.01 259.46 C503.99 241.82, 518.46 225.7, 527.72 214.94 M497.67 261.69 C507.34 250.78, 518.82 235.66, 527.2 227.73 M497.67 261.69 C508.16 249.74, 519.04 237.75, 527.2 227.73 M510.93 258.64 C515.37 253.24, 517.94 247.64, 529.3 237.51 M510.93 258.64 C514.97 253.77, 521.66 246.85, 529.3 237.51" stroke="#fab005" stroke-width="1" fill="none"></path><path d="M32 0 M32 0 C134.04 1.26, 236.92 1.06, 495 0 M495 0 C517.66 1.11, 525.09 12.25, 527 32 M527 32 C524.78 83.69, 525.56 130.62, 527 227 M527 227 C525.8 246.77, 516.19 260.62, 495 259 M495 259 C319 257.94, 142.9 257.98, 32 259 M32 259 C11.57 257.55, 0.19 248.1, 0 227 M0 227 C0.71 173, 0.29 115.72, 0 32 M0 32 C0.94 9.92, 10.75 -0.72, 32 0" stroke="#495057" stroke-width="2.5" fill="none" stroke-dasharray="8 10"></path></g><g transform="translate(673.5 291.5851509726815) rotate(0 92 25)"><text x="92" y="18" font-family="Virgil, Segoe UI Emoji" font-size="20px" fill="#495057" text-anchor="middle" style="white-space: pre;" direction="ltr">Symfonos</text><text x="92" y="43" font-family="Virgil, Segoe UI Emoji" font-size="20px" fill="#495057" text-anchor="middle" style="white-space: pre;" direction="ltr">VLAN 10.10.10.0/24</text></g><g stroke-linecap="round" transform="translate(516 173.0851509726815) rotate(0 74 55)"><path d="M29.15 -1.87 L120.89 -1.01 L132.36 0.44 L141.72 8.7 L145.65 14.35 L147.08 26.9 L148.66 87.56 L145.66 92.82 L141.85 104.67 L131.45 109.93 L119.41 110.86 L26.53 109.21 L14.64 109.64 L5.84 104.46 L5.84 100.68 L2.3 89.89 L-0.92 20.11 L4.67 10.32 L12.22 5.68 L16.19 3.07 L29.12 0.88" stroke="none" stroke-width="0" fill="#fa5252"></path><path d="M27.5 0 M27.5 0 C58.76 -0.68, 87.79 1.42, 120.5 0 M120.5 0 C137.4 0.64, 147.69 8.32, 148 27.5 M148 27.5 C147.84 44, 145.82 57.05, 148 82.5 M148 82.5 C148.2 100.11, 137.95 109.76, 120.5 110 M120.5 110 C86.82 109.99, 51.21 110.76, 27.5 110 M27.5 110 C8.67 110.84, -1.3 99.77, 0 82.5 M0 82.5 C-1.14 64.7, 1.27 42.64, 0 27.5 M0 27.5 C0.58 7.23, 7.31 0.69, 27.5 0" stroke="#495057" stroke-width="2.5" fill="none" stroke-dasharray="8 10"></path></g><g transform="translate(530 178.0851509726815) rotate(0 60 37.5)"><text x="60" y="18" font-family="Virgil, Segoe UI Emoji" font-size="20px" fill="#495057" text-anchor="middle" style="white-space: pre;" direction="ltr">Symfonos 1</text><text x="60" y="43" font-family="Virgil, Segoe UI Emoji" font-size="20px" fill="#495057" text-anchor="middle" style="white-space: pre;" direction="ltr">192.168.1.140</text><text x="60" y="68" font-family="Virgil, Segoe UI Emoji" font-size="20px" fill="#495057" text-anchor="middle" style="white-space: pre;" direction="ltr">10.10.10.2</text></g><g stroke-linecap="round" transform="translate(848 182.0851509726815) rotate(0 84.5 45.5)"><path d="M22.48 1.53 L147.2 -1.33 L161.41 4.48 L164.25 9.29 L166.71 18.88 L167.61 68.7 L163.9 80.2 L159.13 87.83 L145.28 90.05 L22.62 90.23 L6.98 85.94 L5.14 81.17 L-1.53 74.68 L0.96 16.86 L4.71 8.4 L8.72 4.39 L23.05 0.93" stroke="none" stroke-width="0" fill="#fa5252"></path><path d="M22.75 0 M22.75 0 C47.32 -0.02, 74.95 1.26, 146.25 0 M146.25 0 C159.81 -0.55, 167.48 6.64, 169 22.75 M169 22.75 C170.08 33.94, 169.43 44.25, 169 68.25 M169 68.25 C170.17 85.2, 161.35 91.68, 146.25 91 M146.25 91 C96.9 89.68, 48.38 92.84, 22.75 91 M22.75 91 C5.8 91.34, 0.2 84, 0 68.25 M0 68.25 C0.41 51.59, 1.54 37.62, 0 22.75 M0 22.75 C-0.72 6.68, 7.8 -1.43, 22.75 0" stroke="#495057" stroke-width="2.5" fill="none" stroke-dasharray="8 10"></path></g><g transform="translate(876.5 202.5851509726815) rotate(0 56 25)"><text x="56" y="18" font-family="Virgil, Segoe UI Emoji" font-size="20px" fill="#495057" text-anchor="middle" style="white-space: pre;" direction="ltr">Symfonos 2</text><text x="56" y="43" font-family="Virgil, Segoe UI Emoji" font-size="20px" fill="#495057" text-anchor="middle" style="white-space: pre;" direction="ltr">10.10.10.3</text></g><g mask="url(#mask-5-DylsunC1nCdt23-VdoW)" stroke-linecap="round"><g transform="translate(211 229.17545654128912) rotate(0 146.43848699666563 -0.6915215834030732)"><path d="M-0.06 0.53 C48.8 0.12, 244.24 -1.58, 292.94 -1.91" stroke="#495057" stroke-width="2.5" fill="none" stroke-dasharray="8 10"></path></g><g transform="translate(211 229.17545654128912) rotate(0 146.43848699666563 -0.6915215834030732)"><path d="M265.72 10.14 C273.84 5.88, 282.54 1.07, 293.87 -3.82" stroke="#495057" stroke-width="2.5" fill="none"></path></g><g transform="translate(211 229.17545654128912) rotate(0 146.43848699666563 -0.6915215834030732)"><path d="M265.56 -10.38 C273.82 -8.85, 282.57 -7.88, 293.87 -3.82" stroke="#495057" stroke-width="2.5" fill="none"></path></g></g><mask id="mask-5-DylsunC1nCdt23-VdoW"><rect x="0" y="0" fill="#fff" width="603" height="331.7701317981571"></rect><rect x="258.5" y="215.37811891285514" fill="#000" width="197" height="25" opacity="1"></rect></mask><g transform="translate(258.5 215.37811891285514) rotate(0 98.93848699666563 13.105816045030906)"><text x="98.5" y="18" font-family="Virgil, Segoe UI Emoji" font-size="20px" fill="#495057" text-anchor="middle" style="white-space: pre;" direction="ltr">VLAN 192.168.1.0/24</text></g><g stroke-linecap="round"><g transform="translate(678 206.13500070535633) rotate(0 77.67224793694913 2.631270501852782)"><path d="M-0.59 1.01 C25.52 1.55, 130.19 3.96, 155.94 4.25" stroke="#495057" stroke-width="2.5" fill="none" stroke-dasharray="8 10"></path></g><g transform="translate(678 206.13500070535633) rotate(0 77.67224793694913 2.631270501852782)"><path d="M129.25 15.57 C135.88 9.97, 140.22 11.31, 156.87 5.35" stroke="#495057" stroke-width="2.5" fill="none"></path></g><g transform="translate(678 206.13500070535633) rotate(0 77.67224793694913 2.631270501852782)"><path d="M129.62 -4.95 C136.32 -5.63, 140.58 0.63, 156.87 5.35" stroke="#495057" stroke-width="2.5" fill="none"></path></g></g><mask></mask><g stroke-linecap="round"><g transform="translate(833 250.55585105244018) rotate(0 -77.1551497306674 1.722595036517987)"><path d="M0.31 1.03 C-25.36 1.31, -128.88 2.08, -154.62 2.41" stroke="#495057" stroke-width="2.5" fill="none" stroke-dasharray="8 10"></path></g><g transform="translate(833 250.55585105244018) rotate(0 -77.1551497306674 1.722595036517987)"><path d="M-124.81 -9.17 C-135.32 -5.72, -141.29 -1.18, -156.26 4.24" stroke="#495057" stroke-width="2.5" fill="none"></path></g><g transform="translate(833 250.55585105244018) rotate(0 -77.1551497306674 1.722595036517987)"><path d="M-124.61 11.35 C-135.3 9.67, -141.32 9.08, -156.26 4.24" stroke="#495057" stroke-width="2.5" fill="none"></path></g></g><mask></mask><g mask="url(#mask-PFOCRmaN3Sc-jGJAu1GUf)" stroke-linecap="round"><g transform="translate(102.77277908839415 199.28565623730196) rotate(0 401.5190090630204 -98.43129811759866)"><path d="M-0.2 -19.93 C67 -46.06, 268.32 -175.19, 402.23 -176.92 C536.14 -178.64, 736.22 -54.47, 803.24 -30.27" stroke="#495057" stroke-width="2.5" fill="none" stroke-dasharray="8 10"></path></g><g transform="translate(102.77277908839415 199.28565623730196) rotate(0 401.5190090630204 -98.43129811759866)"><path d="M774.8 -31.8 C779.58 -33.6, 787.75 -31.16, 802.37 -32.23" stroke="#495057" stroke-width="2.5" fill="none"></path></g><g transform="translate(102.77277908839415 199.28565623730196) rotate(0 401.5190090630204 -98.43129811759866)"><path d="M783.52 -50.38 C786.53 -48.2, 792.82 -41.77, 802.37 -32.23" stroke="#495057" stroke-width="2.5" fill="none"></path></g></g><mask id="mask-PFOCRmaN3Sc-jGJAu1GUf"><rect x="0" y="0" fill="#fff" width="1006.7727790883941" height="455.28565623730196"></rect><rect x="356.8058050943175" y="10" fill="#000" width="295" height="25" opacity="1"></rect></mask><g transform="translate(356.8058050943175 10) rotate(0 147.48598305709703 90.8543581197033)"><text x="147.5" y="18" font-family="Virgil, Segoe UI Emoji" font-size="20px" fill="#495057" text-anchor="middle" style="white-space: pre;" direction="ltr">Proxychains + chisel + Socks5</text></g><g mask="url(#mask-it2SguBPdRMAroP0RTUqP)" stroke-linecap="round"><g transform="translate(502 268.5851509726815) rotate(0 -144.697998091206 -1.0658606026321422)"><path d="M-0.46 0.84 C-48.54 0.15, -240.68 -2.23, -288.93 -2.97" stroke="#495057" stroke-width="2.5" fill="none" stroke-dasharray="8 10"></path></g><g transform="translate(502 268.5851509726815) rotate(0 -144.697998091206 -1.0658606026321422)"><path d="M-259.21 -12.73 C-267.84 -12.02, -276.22 -7.77, -287.56 -3.44" stroke="#495057" stroke-width="2.5" fill="none"></path></g><g transform="translate(502 268.5851509726815) rotate(0 -144.697998091206 -1.0658606026321422)"><path d="M-259.49 7.79 C-268.24 3.16, -276.55 2.06, -287.56 -3.44" stroke="#495057" stroke-width="2.5" fill="none"></path></g></g><mask id="mask-it2SguBPdRMAroP0RTUqP"><rect x="0" y="0" fill="#fff" width="891" height="371.5851509726815"></rect><rect x="268.5" y="254.5851509726815" fill="#000" width="178" height="25" opacity="1"></rect></mask><g transform="translate(268.5 254.5851509726815) rotate(0 88.80200190879401 12.934139397367858)"><text x="89" y="18" font-family="Virgil, Segoe UI Emoji" font-size="20px" fill="#495057" text-anchor="middle" style="white-space: pre;" direction="ltr">chisel 1234:socks5</text></g></svg>