<?xml version="1.0" standalone="no"?>
<!DOCTYPE svg PUBLIC "-//W3C//DTD SVG 20010904//EN"
 "http://www.w3.org/TR/2001/REC-SVG-20010904/DTD/svg10.dtd">
<svg version="1.0" xmlns="http://www.w3.org/2000/svg"
 width="53.87" height="43.61" viewBox="0 0 512.000000 512.000000"
 preserveAspectRatio="xMidYMid meet">

<g transform="translate(0.000000,512.000000) scale(0.100000,-0.100000)"
fill="#292926" stroke="none">
  <!-- Background yellow -->
  <rect width="4120" height="2320" transform="translate(450.000000,1450.000000)" fill="#f3da47"/>

<path d="M2505 5108 c-50 -18 -2088 -1198 -2119 -1226 -59 -55 -56 16 -56
-1317 0 -1333 -3 -1262 56 -1316 24 -22 1985 -1159 2093 -1214 25 -12 51 -16
95 -13 60 4 80 15 1096 602 569 328 1048 609 1063 624 61 57 57 -29 57 1320
l0 1239 -22 33 c-13 18 -39 46 -58 61 -47 36 -2045 1189 -2090 1205 -42 16
-75 16 -115 2z m-535 -1668 l0 -220 -187 2 -188 3 -3 218 -2 217 190 0 190 0
0 -220z m1525 -465 c246 -52 430 -248 486 -517 26 -127 26 -329 0 -456 -68
-329 -312 -531 -644 -532 -328 0 -561 181 -649 505 -18 68 -21 107 -21 255 0
203 15 278 84 420 80 162 239 287 411 325 84 18 247 18 333 0z m-1525 -595 l0
-580 238 -2 237 -3 3 -142 3 -143 -666 0 -666 0 3 143 3 142 233 3 232 2 0
435 0 435 -185 0 -185 0 0 145 0 145 375 0 375 0 0 -580z"/>
<path d="M3245 2668 c-118 -41 -191 -182 -202 -388 -16 -305 96 -500 289 -500
72 0 121 20 171 68 83 79 117 191 117 382 0 138 -16 223 -54 298 -30 58 -88
116 -138 137 -42 17 -138 19 -183 3z"/>
</g>
</svg>
